<svg xmlns="http://www.w3.org/2000/svg" xmlns:xlink="http://www.w3.org/1999/xlink" width="200" zoomAndPan="magnify" viewBox="0 0 150 149.999998" height="200" preserveAspectRatio="xMidYMid meet" version="1.0"><defs><g/><clipPath id="78fa36b46b"><path d="M 5.628906 60.371094 L 24.378906 60.371094 L 24.378906 82.871094 L 5.628906 82.871094 Z M 5.628906 60.371094 " clip-rule="nonzero"/></clipPath><clipPath id="19e7d2c00b"><path d="M 0.640625 5 L 14 5 L 14 17 L 0.640625 17 Z M 0.640625 5 " clip-rule="nonzero"/></clipPath><clipPath id="3a75944e32"><rect x="0" width="121" y="0" height="23"/></clipPath><clipPath id="c8d8d26f65"><rect x="0" width="116" y="0" height="16"/></clipPath></defs><path fill="#f0ead6" d="M 10.507812 77.21875 L 11.253906 77.21875 C 11.460938 77.21875 11.628906 77.050781 11.628906 76.847656 C 11.628906 76.640625 11.460938 76.472656 11.253906 76.472656 L 10.507812 76.472656 C 10.300781 76.472656 10.132812 76.640625 10.132812 76.847656 C 10.132812 77.050781 10.300781 77.21875 10.507812 77.21875 " fill-opacity="1" fill-rule="nonzero"/><path fill="#f0ead6" d="M 21.738281 76.472656 L 12.753906 76.472656 C 12.546875 76.472656 12.378906 76.640625 12.378906 76.847656 C 12.378906 77.050781 12.546875 77.21875 12.753906 77.21875 L 21.738281 77.21875 C 21.945312 77.21875 22.113281 77.050781 22.113281 76.847656 C 22.113281 76.640625 21.945312 76.472656 21.738281 76.472656 " fill-opacity="1" fill-rule="nonzero"/><path fill="#f0ead6" d="M 10.507812 74.972656 L 11.253906 74.972656 C 11.460938 74.972656 11.628906 74.804688 11.628906 74.597656 C 11.628906 74.394531 11.460938 74.226562 11.253906 74.226562 L 10.507812 74.226562 C 10.300781 74.226562 10.132812 74.394531 10.132812 74.597656 C 10.132812 74.804688 10.300781 74.972656 10.507812 74.972656 " fill-opacity="1" fill-rule="nonzero"/><path fill="#f0ead6" d="M 21.738281 74.226562 L 12.753906 74.226562 C 12.546875 74.226562 12.378906 74.394531 12.378906 74.597656 C 12.378906 74.804688 12.546875 74.972656 12.753906 74.972656 L 21.738281 74.972656 C 21.945312 74.972656 22.113281 74.804688 22.113281 74.597656 C 22.113281 74.394531 21.945312 74.226562 21.738281 74.226562 " fill-opacity="1" fill-rule="nonzero"/><path fill="#f0ead6" d="M 10.507812 72.726562 L 11.253906 72.726562 C 11.460938 72.726562 11.628906 72.558594 11.628906 72.351562 C 11.628906 72.148438 11.460938 71.976562 11.253906 71.976562 L 10.507812 71.976562 C 10.300781 71.976562 10.132812 72.148438 10.132812 72.351562 C 10.132812 72.558594 10.300781 72.726562 10.507812 72.726562 " fill-opacity="1" fill-rule="nonzero"/><path fill="#f0ead6" d="M 21.738281 71.976562 L 12.753906 71.976562 C 12.546875 71.976562 12.378906 72.148438 12.378906 72.351562 C 12.378906 72.558594 12.546875 72.726562 12.753906 72.726562 L 21.738281 72.726562 C 21.945312 72.726562 22.113281 72.558594 22.113281 72.351562 C 22.113281 72.148438 21.945312 71.976562 21.738281 71.976562 " fill-opacity="1" fill-rule="nonzero"/><path fill="#f0ead6" d="M 10.507812 70.480469 L 11.253906 70.480469 C 11.460938 70.480469 11.628906 70.3125 11.628906 70.105469 C 11.628906 69.898438 11.460938 69.730469 11.253906 69.730469 L 10.507812 69.730469 C 10.300781 69.730469 10.132812 69.898438 10.132812 70.105469 C 10.132812 70.3125 10.300781 70.480469 10.507812 70.480469 " fill-opacity="1" fill-rule="nonzero"/><path fill="#f0ead6" d="M 21.738281 69.730469 L 12.753906 69.730469 C 12.546875 69.730469 12.378906 69.898438 12.378906 70.105469 C 12.378906 70.3125 12.546875 70.480469 12.753906 70.480469 L 21.738281 70.480469 C 21.945312 70.480469 22.113281 70.3125 22.113281 70.105469 C 22.113281 69.898438 21.945312 69.730469 21.738281 69.730469 " fill-opacity="1" fill-rule="nonzero"/><path fill="#f0ead6" d="M 10.507812 68.234375 L 11.253906 68.234375 C 11.460938 68.234375 11.628906 68.066406 11.628906 67.859375 C 11.628906 67.652344 11.460938 67.484375 11.253906 67.484375 L 10.507812 67.484375 C 10.300781 67.484375 10.132812 67.652344 10.132812 67.859375 C 10.132812 68.066406 10.300781 68.234375 10.507812 68.234375 " fill-opacity="1" fill-rule="nonzero"/><path fill="#f0ead6" d="M 12.378906 67.859375 C 12.378906 68.066406 12.546875 68.234375 12.753906 68.234375 L 21.738281 68.234375 C 21.945312 68.234375 22.113281 68.066406 22.113281 67.859375 C 22.113281 67.652344 21.945312 67.484375 21.738281 67.484375 L 12.753906 67.484375 C 12.546875 67.484375 12.378906 67.652344 12.378906 67.859375 " fill-opacity="1" fill-rule="nonzero"/><g clip-path="url(#78fa36b46b)"><path fill="#f0ead6" d="M 6.386719 62.617188 L 7.886719 62.617188 L 7.886719 80.214844 C 7.886719 80.421875 8.054688 80.589844 8.261719 80.589844 L 21.363281 80.589844 L 21.363281 82.085938 L 6.386719 82.085938 Z M 8.636719 61.121094 L 18.371094 61.121094 L 18.371094 65.988281 C 18.371094 66.195312 18.539062 66.363281 18.742188 66.363281 L 23.613281 66.363281 L 23.613281 79.839844 L 8.636719 79.839844 Z M 23.082031 65.613281 L 19.117188 65.613281 L 19.117188 61.648438 Z M 6.015625 82.835938 L 21.738281 82.835938 C 21.945312 82.835938 22.113281 82.667969 22.113281 82.460938 L 22.113281 80.589844 L 23.984375 80.589844 C 24.191406 80.589844 24.359375 80.421875 24.359375 80.214844 L 24.359375 65.988281 C 24.359375 65.980469 24.355469 65.972656 24.355469 65.964844 C 24.351562 65.929688 24.347656 65.898438 24.335938 65.867188 C 24.332031 65.855469 24.328125 65.84375 24.324219 65.832031 C 24.304688 65.792969 24.28125 65.753906 24.25 65.722656 L 19.007812 60.480469 C 18.976562 60.449219 18.9375 60.425781 18.898438 60.40625 C 18.886719 60.402344 18.875 60.398438 18.863281 60.394531 C 18.832031 60.382812 18.800781 60.378906 18.765625 60.375 C 18.757812 60.375 18.753906 60.371094 18.742188 60.371094 L 8.261719 60.371094 C 8.054688 60.371094 7.886719 60.539062 7.886719 60.746094 L 7.886719 61.871094 L 6.015625 61.871094 C 5.808594 61.871094 5.640625 62.039062 5.640625 62.242188 L 5.640625 82.460938 C 5.640625 82.667969 5.808594 82.835938 6.015625 82.835938 " fill-opacity="1" fill-rule="nonzero"/></g><path fill="#f0ead6" d="M 10.882812 64.488281 L 12.378906 64.488281 L 12.378906 65.988281 L 10.882812 65.988281 Z M 10.507812 66.738281 L 12.753906 66.738281 C 12.960938 66.738281 13.128906 66.566406 13.128906 66.363281 L 13.128906 64.117188 C 13.128906 63.910156 12.960938 63.742188 12.753906 63.742188 L 10.507812 63.742188 C 10.300781 63.742188 10.132812 63.910156 10.132812 64.117188 L 10.132812 66.363281 C 10.132812 66.566406 10.300781 66.738281 10.507812 66.738281 " fill-opacity="1" fill-rule="nonzero"/><g transform="matrix(1, 0, 0, 1, 26, 56)"><g clip-path="url(#3a75944e32)"><g clip-path="url(#19e7d2c00b)"><g fill="#f0ead6" fill-opacity="1"><g transform="translate(0.972488, 16.886307)"><g><path d="M 12.9375 -0.21875 C 12.988281 -0.21875 13.015625 -0.179688 13.015625 -0.109375 C 13.015625 -0.0351562 12.988281 0 12.9375 0 C 12.695312 0 12.328125 -0.0078125 11.828125 -0.03125 C 11.316406 -0.0625 10.945312 -0.078125 10.71875 -0.078125 C 10.40625 -0.078125 10.046875 -0.0625 9.640625 -0.03125 C 9.222656 -0.0078125 8.898438 0 8.671875 0 C 8.628906 0 8.609375 -0.0351562 8.609375 -0.109375 C 8.609375 -0.179688 8.628906 -0.21875 8.671875 -0.21875 C 9.023438 -0.21875 9.28125 -0.253906 9.4375 -0.328125 C 9.601562 -0.410156 9.6875 -0.546875 9.6875 -0.734375 C 9.6875 -0.910156 9.585938 -1.21875 9.390625 -1.65625 L 8 -4.453125 L 3.59375 -4.453125 L 2.734375 -2.484375 C 2.566406 -2.128906 2.484375 -1.804688 2.484375 -1.515625 C 2.484375 -1.085938 2.632812 -0.765625 2.9375 -0.546875 C 3.25 -0.328125 3.675781 -0.21875 4.21875 -0.21875 C 4.28125 -0.21875 4.3125 -0.179688 4.3125 -0.109375 C 4.3125 -0.0351562 4.28125 0 4.21875 0 C 4 0 3.6875 -0.0078125 3.28125 -0.03125 C 2.8125 -0.0625 2.410156 -0.078125 2.078125 -0.078125 C 1.742188 -0.078125 1.359375 -0.0625 0.921875 -0.03125 C 0.535156 -0.0078125 0.21875 0 -0.03125 0 C -0.09375 0 -0.125 -0.0351562 -0.125 -0.109375 C -0.125 -0.179688 -0.09375 -0.21875 -0.03125 -0.21875 C 0.300781 -0.21875 0.582031 -0.285156 0.8125 -0.421875 C 1.039062 -0.554688 1.265625 -0.796875 1.484375 -1.140625 C 1.703125 -1.484375 1.96875 -1.992188 2.28125 -2.671875 L 6.1875 -11.46875 C 6.207031 -11.507812 6.257812 -11.53125 6.34375 -11.53125 C 6.425781 -11.53125 6.476562 -11.507812 6.5 -11.46875 L 10.953125 -2.484375 C 11.367188 -1.617188 11.71875 -1.023438 12 -0.703125 C 12.289062 -0.378906 12.601562 -0.21875 12.9375 -0.21875 Z M 3.796875 -4.90625 L 7.78125 -4.90625 L 5.6875 -9.140625 Z M 3.796875 -4.90625 "/></g></g></g></g><g fill="#f0ead6" fill-opacity="1"><g transform="translate(13.903978, 16.886307)"><g><path d="M 2.984375 -9.4375 C 2.984375 -8.988281 3.09375 -8.59375 3.3125 -8.25 C 3.539062 -7.90625 3.820312 -7.601562 4.15625 -7.34375 C 4.488281 -7.09375 4.941406 -6.789062 5.515625 -6.4375 C 6.128906 -6.050781 6.613281 -5.71875 6.96875 -5.4375 C 7.332031 -5.15625 7.632812 -4.8125 7.875 -4.40625 C 8.125 -4 8.25 -3.523438 8.25 -2.984375 C 8.25 -2.367188 8.085938 -1.816406 7.765625 -1.328125 C 7.453125 -0.835938 7 -0.457031 6.40625 -0.1875 C 5.820312 0.0820312 5.15625 0.21875 4.40625 0.21875 C 3.894531 0.21875 3.367188 0.148438 2.828125 0.015625 C 2.285156 -0.117188 1.875 -0.28125 1.59375 -0.46875 C 1.488281 -0.539062 1.429688 -0.65625 1.421875 -0.8125 L 1.3125 -3.578125 L 1.3125 -3.59375 C 1.3125 -3.644531 1.335938 -3.671875 1.390625 -3.671875 C 1.453125 -3.679688 1.492188 -3.664062 1.515625 -3.625 C 1.910156 -2.613281 2.363281 -1.785156 2.875 -1.140625 C 3.394531 -0.503906 4.054688 -0.1875 4.859375 -0.1875 C 5.378906 -0.1875 5.8125 -0.328125 6.15625 -0.609375 C 6.507812 -0.890625 6.6875 -1.363281 6.6875 -2.03125 C 6.6875 -2.570312 6.566406 -3.039062 6.328125 -3.4375 C 6.097656 -3.832031 5.8125 -4.164062 5.46875 -4.4375 C 5.125 -4.707031 4.65625 -5.035156 4.0625 -5.421875 C 3.476562 -5.796875 3.019531 -6.113281 2.6875 -6.375 C 2.363281 -6.632812 2.085938 -6.953125 1.859375 -7.328125 C 1.628906 -7.710938 1.515625 -8.160156 1.515625 -8.671875 C 1.515625 -9.304688 1.6875 -9.84375 2.03125 -10.28125 C 2.382812 -10.71875 2.84375 -11.039062 3.40625 -11.25 C 3.96875 -11.457031 4.5625 -11.5625 5.1875 -11.5625 C 5.59375 -11.5625 6 -11.519531 6.40625 -11.4375 C 6.820312 -11.363281 7.171875 -11.269531 7.453125 -11.15625 C 7.640625 -11.082031 7.734375 -10.960938 7.734375 -10.796875 L 7.78125 -8.328125 C 7.78125 -8.296875 7.742188 -8.269531 7.671875 -8.25 C 7.609375 -8.238281 7.570312 -8.253906 7.5625 -8.296875 C 7.320312 -9.035156 7 -9.703125 6.59375 -10.296875 C 6.1875 -10.898438 5.578125 -11.203125 4.765625 -11.203125 C 4.222656 -11.203125 3.789062 -11.039062 3.46875 -10.71875 C 3.144531 -10.40625 2.984375 -9.976562 2.984375 -9.4375 Z M 2.984375 -9.4375 "/></g></g></g><g fill="#f0ead6" fill-opacity="1"><g transform="translate(23.125168, 16.886307)"><g><path d="M 13.046875 -11.375 C 13.066406 -11.375 13.078125 -11.335938 13.078125 -11.265625 C 13.078125 -11.191406 13.066406 -11.15625 13.046875 -11.15625 C 12.554688 -11.15625 12.175781 -10.976562 11.90625 -10.625 C 11.644531 -10.28125 11.515625 -9.785156 11.515625 -9.140625 L 11.515625 0.25 C 11.515625 0.289062 11.484375 0.316406 11.421875 0.328125 C 11.359375 0.335938 11.316406 0.332031 11.296875 0.3125 L 2.765625 -9.609375 L 2.765625 -2.203125 C 2.765625 -1.554688 2.890625 -1.0625 3.140625 -0.71875 C 3.398438 -0.382812 3.769531 -0.21875 4.25 -0.21875 C 4.28125 -0.21875 4.296875 -0.179688 4.296875 -0.109375 C 4.296875 -0.0351562 4.28125 0 4.25 0 C 3.925781 0 3.679688 -0.00390625 3.515625 -0.015625 L 2.546875 -0.03125 L 1.46875 -0.015625 C 1.28125 -0.00390625 1.003906 0 0.640625 0 C 0.597656 0 0.578125 -0.0351562 0.578125 -0.109375 C 0.578125 -0.179688 0.597656 -0.21875 0.640625 -0.21875 C 1.160156 -0.21875 1.5625 -0.382812 1.84375 -0.71875 C 2.132812 -1.0625 2.28125 -1.554688 2.28125 -2.203125 L 2.28125 -10.171875 C 1.9375 -10.535156 1.628906 -10.789062 1.359375 -10.9375 C 1.085938 -11.082031 0.804688 -11.15625 0.515625 -11.15625 C 0.484375 -11.15625 0.46875 -11.191406 0.46875 -11.265625 C 0.46875 -11.335938 0.484375 -11.375 0.515625 -11.375 L 1.234375 -11.34375 C 1.390625 -11.332031 1.613281 -11.328125 1.90625 -11.328125 L 3.078125 -11.34375 C 3.222656 -11.363281 3.394531 -11.375 3.59375 -11.375 C 3.695312 -11.375 3.769531 -11.347656 3.8125 -11.296875 C 3.863281 -11.242188 3.9375 -11.144531 4.03125 -11 L 4.46875 -10.421875 L 11.015625 -2.703125 L 11.015625 -9.140625 C 11.015625 -9.785156 10.882812 -10.28125 10.625 -10.625 C 10.375 -10.976562 10.015625 -11.15625 9.546875 -11.15625 C 9.523438 -11.15625 9.515625 -11.191406 9.515625 -11.265625 C 9.515625 -11.335938 9.523438 -11.375 9.546875 -11.375 L 10.296875 -11.34375 C 10.679688 -11.320312 11.003906 -11.3125 11.265625 -11.3125 C 11.503906 -11.3125 11.828125 -11.320312 12.234375 -11.34375 Z M 13.046875 -11.375 "/></g></g></g><g fill="#f0ead6" fill-opacity="1"><g transform="translate(36.438601, 16.886307)"><g/></g></g><g fill="#f0ead6" fill-opacity="1"><g transform="translate(40.694535, 16.886307)"><g><path d="M 7.671875 -11.5625 C 9.015625 -11.5625 10.101562 -11.375 10.9375 -11 C 11.03125 -10.957031 11.085938 -10.910156 11.109375 -10.859375 C 11.140625 -10.816406 11.164062 -10.722656 11.1875 -10.578125 L 11.40625 -8.1875 C 11.40625 -8.144531 11.375 -8.117188 11.3125 -8.109375 C 11.25 -8.097656 11.207031 -8.117188 11.1875 -8.171875 C 10.875 -9.160156 10.40625 -9.914062 9.78125 -10.4375 C 9.15625 -10.957031 8.378906 -11.21875 7.453125 -11.21875 C 6.566406 -11.21875 5.773438 -10.992188 5.078125 -10.546875 C 4.378906 -10.109375 3.835938 -9.472656 3.453125 -8.640625 C 3.066406 -7.816406 2.875 -6.851562 2.875 -5.75 C 2.875 -4.65625 3.078125 -3.679688 3.484375 -2.828125 C 3.898438 -1.972656 4.460938 -1.304688 5.171875 -0.828125 C 5.890625 -0.359375 6.703125 -0.125 7.609375 -0.125 C 8.492188 -0.125 9.226562 -0.359375 9.8125 -0.828125 C 10.394531 -1.296875 10.914062 -2.039062 11.375 -3.0625 C 11.382812 -3.09375 11.414062 -3.101562 11.46875 -3.09375 C 11.53125 -3.082031 11.5625 -3.0625 11.5625 -3.03125 L 11.328125 -0.859375 C 11.316406 -0.710938 11.296875 -0.617188 11.265625 -0.578125 C 11.234375 -0.546875 11.171875 -0.503906 11.078125 -0.453125 C 9.984375 -0.00390625 8.828125 0.21875 7.609375 0.21875 C 6.304688 0.21875 5.144531 -0.0234375 4.125 -0.515625 C 3.101562 -1.003906 2.304688 -1.691406 1.734375 -2.578125 C 1.171875 -3.472656 0.890625 -4.5 0.890625 -5.65625 C 0.890625 -6.789062 1.1875 -7.804688 1.78125 -8.703125 C 2.375 -9.609375 3.1875 -10.3125 4.21875 -10.8125 C 5.25 -11.3125 6.398438 -11.5625 7.671875 -11.5625 Z M 7.671875 -11.5625 "/></g></g></g><g fill="#f0ead6" fill-opacity="1"><g transform="translate(53.11677, 16.886307)"><g><path d="M 4.28125 0.234375 C 3.550781 0.234375 2.90625 0.0625 2.34375 -0.28125 C 1.789062 -0.625 1.359375 -1.085938 1.046875 -1.671875 C 0.742188 -2.265625 0.59375 -2.90625 0.59375 -3.59375 C 0.59375 -4.382812 0.789062 -5.054688 1.1875 -5.609375 C 1.582031 -6.160156 2.085938 -6.570312 2.703125 -6.84375 C 3.316406 -7.113281 3.941406 -7.25 4.578125 -7.25 C 5.316406 -7.25 5.960938 -7.070312 6.515625 -6.71875 C 7.066406 -6.375 7.488281 -5.910156 7.78125 -5.328125 C 8.070312 -4.753906 8.21875 -4.140625 8.21875 -3.484375 C 8.21875 -2.765625 8.035156 -2.117188 7.671875 -1.546875 C 7.316406 -0.972656 6.835938 -0.53125 6.234375 -0.21875 C 5.628906 0.0820312 4.976562 0.234375 4.28125 0.234375 Z M 4.8125 -0.125 C 5.351562 -0.125 5.765625 -0.359375 6.046875 -0.828125 C 6.328125 -1.304688 6.46875 -2 6.46875 -2.90625 C 6.46875 -3.71875 6.351562 -4.425781 6.125 -5.03125 C 5.90625 -5.644531 5.601562 -6.109375 5.21875 -6.421875 C 4.84375 -6.734375 4.429688 -6.890625 3.984375 -6.890625 C 3.441406 -6.890625 3.03125 -6.664062 2.75 -6.21875 C 2.46875 -5.769531 2.328125 -5.109375 2.328125 -4.234375 C 2.328125 -3.453125 2.429688 -2.75 2.640625 -2.125 C 2.859375 -1.5 3.15625 -1.007812 3.53125 -0.65625 C 3.914062 -0.300781 4.34375 -0.125 4.8125 -0.125 Z M 4.8125 -0.125 "/></g></g></g><g fill="#f0ead6" fill-opacity="1"><g transform="translate(61.956013, 16.886307)"><g><path d="M 9.171875 -0.21875 C 9.203125 -0.21875 9.21875 -0.179688 9.21875 -0.109375 C 9.21875 -0.0351562 9.203125 0 9.171875 0 C 8.867188 0 8.628906 -0.00390625 8.453125 -0.015625 L 7.40625 -0.03125 L 6.359375 -0.015625 C 6.179688 -0.00390625 5.941406 0 5.640625 0 C 5.597656 0 5.578125 -0.0351562 5.578125 -0.109375 C 5.578125 -0.179688 5.597656 -0.21875 5.640625 -0.21875 C 6.046875 -0.21875 6.316406 -0.300781 6.453125 -0.46875 C 6.585938 -0.644531 6.65625 -0.976562 6.65625 -1.46875 L 6.65625 -4.203125 C 6.65625 -4.878906 6.53125 -5.378906 6.28125 -5.703125 C 6.03125 -6.023438 5.640625 -6.1875 5.109375 -6.1875 C 4.796875 -6.1875 4.472656 -6.113281 4.140625 -5.96875 C 3.816406 -5.820312 3.519531 -5.628906 3.25 -5.390625 L 3.25 -1.46875 C 3.25 -0.976562 3.316406 -0.644531 3.453125 -0.46875 C 3.585938 -0.300781 3.863281 -0.21875 4.28125 -0.21875 C 4.3125 -0.21875 4.328125 -0.179688 4.328125 -0.109375 C 4.328125 -0.0351562 4.3125 0 4.28125 0 C 3.96875 0 3.726562 -0.00390625 3.5625 -0.015625 L 2.515625 -0.03125 L 1.453125 -0.015625 C 1.285156 -0.00390625 1.050781 0 0.75 0 C 0.707031 0 0.6875 -0.0351562 0.6875 -0.109375 C 0.6875 -0.179688 0.707031 -0.21875 0.75 -0.21875 C 1.15625 -0.21875 1.425781 -0.300781 1.5625 -0.46875 C 1.695312 -0.644531 1.765625 -0.976562 1.765625 -1.46875 L 1.765625 -4.953125 C 1.765625 -5.335938 1.71875 -5.617188 1.625 -5.796875 C 1.53125 -5.984375 1.382812 -6.078125 1.1875 -6.078125 C 1 -6.078125 0.691406 -5.984375 0.265625 -5.796875 L 0.25 -5.796875 C 0.207031 -5.796875 0.171875 -5.828125 0.140625 -5.890625 C 0.117188 -5.953125 0.125 -5.988281 0.15625 -6 L 2.546875 -7.171875 C 2.617188 -7.191406 2.660156 -7.203125 2.671875 -7.203125 C 2.796875 -7.203125 2.921875 -7.066406 3.046875 -6.796875 C 3.171875 -6.523438 3.238281 -6.171875 3.25 -5.734375 C 4.101562 -6.734375 5.023438 -7.234375 6.015625 -7.234375 C 6.679688 -7.234375 7.203125 -7.03125 7.578125 -6.625 C 7.953125 -6.21875 8.140625 -5.671875 8.140625 -4.984375 L 8.140625 -1.46875 C 8.140625 -0.976562 8.207031 -0.644531 8.34375 -0.46875 C 8.476562 -0.300781 8.753906 -0.21875 9.171875 -0.21875 Z M 9.171875 -0.21875 "/></g></g></g><g fill="#f0ead6" fill-opacity="1"><g transform="translate(71.468206, 16.886307)"><g><path d="M 2.03125 -6.078125 C 2.03125 -5.703125 2.160156 -5.382812 2.421875 -5.125 C 2.679688 -4.875 3.0625 -4.609375 3.5625 -4.328125 C 4 -4.085938 4.332031 -3.882812 4.5625 -3.71875 C 4.800781 -3.5625 5.007812 -3.347656 5.1875 -3.078125 C 5.363281 -2.816406 5.453125 -2.5 5.453125 -2.125 C 5.453125 -1.71875 5.347656 -1.335938 5.140625 -0.984375 C 4.941406 -0.628906 4.640625 -0.34375 4.234375 -0.125 C 3.828125 0.09375 3.34375 0.203125 2.78125 0.203125 C 2.113281 0.203125 1.503906 0.03125 0.953125 -0.3125 C 0.878906 -0.382812 0.84375 -0.457031 0.84375 -0.53125 L 0.796875 -2.203125 C 0.796875 -2.234375 0.828125 -2.253906 0.890625 -2.265625 C 0.960938 -2.273438 1.003906 -2.265625 1.015625 -2.234375 C 1.222656 -1.628906 1.535156 -1.128906 1.953125 -0.734375 C 2.367188 -0.347656 2.816406 -0.15625 3.296875 -0.15625 C 3.597656 -0.15625 3.832031 -0.234375 4 -0.390625 C 4.164062 -0.554688 4.25 -0.796875 4.25 -1.109375 C 4.25 -1.566406 4.113281 -1.929688 3.84375 -2.203125 C 3.582031 -2.484375 3.195312 -2.753906 2.6875 -3.015625 C 2.28125 -3.234375 1.957031 -3.414062 1.71875 -3.5625 C 1.488281 -3.71875 1.289062 -3.925781 1.125 -4.1875 C 0.96875 -4.445312 0.890625 -4.773438 0.890625 -5.171875 C 0.890625 -5.859375 1.140625 -6.367188 1.640625 -6.703125 C 2.148438 -7.046875 2.757812 -7.21875 3.46875 -7.21875 C 3.945312 -7.21875 4.429688 -7.128906 4.921875 -6.953125 C 5.035156 -6.898438 5.09375 -6.832031 5.09375 -6.75 C 5.09375 -6.46875 5.085938 -6.25 5.078125 -6.09375 L 5.0625 -5.21875 C 5.0625 -5.1875 5.023438 -5.171875 4.953125 -5.171875 C 4.878906 -5.171875 4.84375 -5.1875 4.84375 -5.21875 C 4.84375 -5.457031 4.742188 -5.707031 4.546875 -5.96875 C 4.347656 -6.226562 4.097656 -6.441406 3.796875 -6.609375 C 3.492188 -6.785156 3.1875 -6.875 2.875 -6.875 C 2.3125 -6.875 2.03125 -6.609375 2.03125 -6.078125 Z M 2.03125 -6.078125 "/></g></g></g><g fill="#f0ead6" fill-opacity="1"><g transform="translate(77.59748, 16.886307)"><g><path d="M 9 -1.140625 C 9.039062 -1.140625 9.070312 -1.109375 9.09375 -1.046875 C 9.113281 -0.992188 9.109375 -0.953125 9.078125 -0.921875 L 6.6875 0.21875 L 6.625 0.234375 C 6.5 0.234375 6.382812 0.0976562 6.28125 -0.171875 C 6.1875 -0.441406 6.132812 -0.804688 6.125 -1.265625 C 5.28125 -0.285156 4.382812 0.203125 3.4375 0.203125 C 2.78125 0.203125 2.269531 0 1.90625 -0.40625 C 1.539062 -0.8125 1.359375 -1.367188 1.359375 -2.078125 L 1.359375 -4.78125 C 1.359375 -5.601562 1.171875 -6.015625 0.796875 -6.015625 C 0.679688 -6.015625 0.515625 -5.96875 0.296875 -5.875 L 0.265625 -5.875 C 0.222656 -5.875 0.1875 -5.90625 0.15625 -5.96875 C 0.132812 -6.03125 0.144531 -6.070312 0.1875 -6.09375 L 2.484375 -7.171875 L 2.5625 -7.1875 C 2.613281 -7.1875 2.664062 -7.160156 2.71875 -7.109375 C 2.78125 -7.054688 2.8125 -7.015625 2.8125 -6.984375 L 2.8125 -2.859375 C 2.8125 -2.179688 2.9375 -1.675781 3.1875 -1.34375 C 3.4375 -1.007812 3.816406 -0.84375 4.328125 -0.84375 C 4.628906 -0.84375 4.941406 -0.910156 5.265625 -1.046875 C 5.585938 -1.191406 5.875 -1.394531 6.125 -1.65625 L 6.125 -4.78125 C 6.125 -5.207031 6.078125 -5.519531 5.984375 -5.71875 C 5.898438 -5.914062 5.757812 -6.015625 5.5625 -6.015625 C 5.457031 -6.015625 5.289062 -5.96875 5.0625 -5.875 L 5.03125 -5.875 C 4.988281 -5.875 4.953125 -5.90625 4.921875 -5.96875 C 4.898438 -6.039062 4.914062 -6.082031 4.96875 -6.09375 L 7.25 -7.171875 C 7.28125 -7.179688 7.3125 -7.1875 7.34375 -7.1875 C 7.394531 -7.1875 7.453125 -7.160156 7.515625 -7.109375 C 7.578125 -7.054688 7.609375 -7.015625 7.609375 -6.984375 L 7.609375 -2.0625 C 7.609375 -1.632812 7.648438 -1.332031 7.734375 -1.15625 C 7.816406 -0.988281 7.953125 -0.90625 8.140625 -0.90625 C 8.285156 -0.90625 8.5625 -0.976562 8.96875 -1.125 Z M 9 -1.140625 "/></g></g></g><g fill="#f0ead6" fill-opacity="1"><g transform="translate(86.709543, 16.886307)"><g><path d="M 0.671875 0 C 0.640625 0 0.625 -0.0351562 0.625 -0.109375 C 0.625 -0.179688 0.640625 -0.21875 0.671875 -0.21875 C 1.066406 -0.21875 1.335938 -0.304688 1.484375 -0.484375 C 1.628906 -0.660156 1.703125 -0.988281 1.703125 -1.46875 L 1.703125 -10.765625 C 1.703125 -11.191406 1.660156 -11.5 1.578125 -11.6875 C 1.503906 -11.875 1.363281 -11.96875 1.15625 -11.96875 C 0.976562 -11.96875 0.738281 -11.894531 0.4375 -11.75 L 0.421875 -11.75 C 0.367188 -11.75 0.328125 -11.78125 0.296875 -11.84375 C 0.273438 -11.90625 0.28125 -11.945312 0.3125 -11.96875 L 2.875 -13.171875 L 2.953125 -13.1875 C 2.992188 -13.1875 3.046875 -13.160156 3.109375 -13.109375 C 3.179688 -13.066406 3.21875 -13.023438 3.21875 -12.984375 L 3.21875 -1.46875 C 3.21875 -0.976562 3.285156 -0.644531 3.421875 -0.46875 C 3.554688 -0.300781 3.828125 -0.21875 4.234375 -0.21875 C 4.273438 -0.21875 4.296875 -0.179688 4.296875 -0.109375 C 4.296875 -0.0351562 4.273438 0 4.234375 0 C 3.941406 0 3.707031 -0.00390625 3.53125 -0.015625 L 2.453125 -0.03125 L 1.40625 -0.015625 C 1.21875 -0.00390625 0.972656 0 0.671875 0 Z M 0.671875 0 "/></g></g></g><g fill="#f0ead6" fill-opacity="1"><g transform="translate(91.529295, 16.886307)"><g><path d="M 5.8125 -1.15625 C 5.851562 -1.15625 5.890625 -1.128906 5.921875 -1.078125 C 5.953125 -1.035156 5.945312 -1.003906 5.90625 -0.984375 C 5.457031 -0.554688 5.03125 -0.25 4.625 -0.0625 C 4.226562 0.125 3.804688 0.21875 3.359375 0.21875 C 2.835938 0.21875 2.398438 0.09375 2.046875 -0.15625 C 1.691406 -0.40625 1.515625 -0.820312 1.515625 -1.40625 L 1.515625 -5.515625 C 1.515625 -5.910156 1.445312 -6.175781 1.3125 -6.3125 C 1.1875 -6.445312 0.941406 -6.515625 0.578125 -6.515625 C 0.566406 -6.515625 0.550781 -6.53125 0.53125 -6.5625 C 0.519531 -6.59375 0.515625 -6.625 0.515625 -6.65625 C 0.515625 -6.695312 0.519531 -6.726562 0.53125 -6.75 C 0.550781 -6.78125 0.566406 -6.796875 0.578125 -6.796875 C 1.722656 -6.847656 2.441406 -7.34375 2.734375 -8.28125 C 2.753906 -8.320312 2.800781 -8.34375 2.875 -8.34375 C 2.957031 -8.34375 3 -8.320312 3 -8.28125 L 3 -6.84375 C 3.570312 -6.851562 4.378906 -6.910156 5.421875 -7.015625 C 5.441406 -7.015625 5.46875 -6.96875 5.5 -6.875 C 5.53125 -6.789062 5.546875 -6.691406 5.546875 -6.578125 C 5.546875 -6.472656 5.523438 -6.363281 5.484375 -6.25 C 5.441406 -6.144531 5.394531 -6.097656 5.34375 -6.109375 C 4.664062 -6.265625 3.882812 -6.363281 3 -6.40625 L 3 -2 C 3 -1.53125 3.113281 -1.179688 3.34375 -0.953125 C 3.582031 -0.734375 3.914062 -0.625 4.34375 -0.625 C 4.851562 -0.625 5.332031 -0.796875 5.78125 -1.140625 Z M 5.8125 -1.15625 "/></g></g></g><g fill="#f0ead6" fill-opacity="1"><g transform="translate(97.658569, 16.886307)"><g><path d="M 2.46875 -9.109375 C 2.15625 -9.109375 1.910156 -9.191406 1.734375 -9.359375 C 1.554688 -9.535156 1.46875 -9.78125 1.46875 -10.09375 C 1.46875 -10.394531 1.554688 -10.628906 1.734375 -10.796875 C 1.910156 -10.960938 2.15625 -11.046875 2.46875 -11.046875 C 2.769531 -11.046875 3.003906 -10.960938 3.171875 -10.796875 C 3.347656 -10.628906 3.4375 -10.394531 3.4375 -10.09375 C 3.4375 -9.78125 3.351562 -9.535156 3.1875 -9.359375 C 3.03125 -9.191406 2.789062 -9.109375 2.46875 -9.109375 Z M 0.796875 0 C 0.765625 0 0.75 -0.0351562 0.75 -0.109375 C 0.75 -0.179688 0.765625 -0.21875 0.796875 -0.21875 C 1.210938 -0.21875 1.484375 -0.300781 1.609375 -0.46875 C 1.742188 -0.644531 1.8125 -0.976562 1.8125 -1.46875 L 1.8125 -4.78125 C 1.8125 -5.195312 1.769531 -5.5 1.6875 -5.6875 C 1.601562 -5.875 1.457031 -5.96875 1.25 -5.96875 C 1.070312 -5.96875 0.835938 -5.894531 0.546875 -5.75 L 0.53125 -5.75 C 0.476562 -5.75 0.4375 -5.773438 0.40625 -5.828125 C 0.382812 -5.890625 0.394531 -5.9375 0.4375 -5.96875 L 3.0625 -7.1875 L 3.109375 -7.203125 C 3.160156 -7.203125 3.210938 -7.171875 3.265625 -7.109375 C 3.316406 -7.054688 3.34375 -7.015625 3.34375 -6.984375 L 3.34375 -6.609375 C 3.320312 -6.097656 3.3125 -5.492188 3.3125 -4.796875 L 3.3125 -1.46875 C 3.3125 -0.976562 3.378906 -0.644531 3.515625 -0.46875 C 3.660156 -0.300781 3.9375 -0.21875 4.34375 -0.21875 C 4.382812 -0.21875 4.40625 -0.179688 4.40625 -0.109375 C 4.40625 -0.0351562 4.382812 0 4.34375 0 C 4.039062 0 3.800781 -0.00390625 3.625 -0.015625 L 2.5625 -0.03125 L 1.515625 -0.015625 C 1.335938 -0.00390625 1.097656 0 0.796875 0 Z M 0.796875 0 "/></g></g></g><g fill="#f0ead6" fill-opacity="1"><g transform="translate(102.496513, 16.886307)"><g><path d="M 9.171875 -0.21875 C 9.203125 -0.21875 9.21875 -0.179688 9.21875 -0.109375 C 9.21875 -0.0351562 9.203125 0 9.171875 0 C 8.867188 0 8.628906 -0.00390625 8.453125 -0.015625 L 7.40625 -0.03125 L 6.359375 -0.015625 C 6.179688 -0.00390625 5.941406 0 5.640625 0 C 5.597656 0 5.578125 -0.0351562 5.578125 -0.109375 C 5.578125 -0.179688 5.597656 -0.21875 5.640625 -0.21875 C 6.046875 -0.21875 6.316406 -0.300781 6.453125 -0.46875 C 6.585938 -0.644531 6.65625 -0.976562 6.65625 -1.46875 L 6.65625 -4.203125 C 6.65625 -4.878906 6.53125 -5.378906 6.28125 -5.703125 C 6.03125 -6.023438 5.640625 -6.1875 5.109375 -6.1875 C 4.796875 -6.1875 4.472656 -6.113281 4.140625 -5.96875 C 3.816406 -5.820312 3.519531 -5.628906 3.25 -5.390625 L 3.25 -1.46875 C 3.25 -0.976562 3.316406 -0.644531 3.453125 -0.46875 C 3.585938 -0.300781 3.863281 -0.21875 4.28125 -0.21875 C 4.3125 -0.21875 4.328125 -0.179688 4.328125 -0.109375 C 4.328125 -0.0351562 4.3125 0 4.28125 0 C 3.96875 0 3.726562 -0.00390625 3.5625 -0.015625 L 2.515625 -0.03125 L 1.453125 -0.015625 C 1.285156 -0.00390625 1.050781 0 0.75 0 C 0.707031 0 0.6875 -0.0351562 0.6875 -0.109375 C 0.6875 -0.179688 0.707031 -0.21875 0.75 -0.21875 C 1.15625 -0.21875 1.425781 -0.300781 1.5625 -0.46875 C 1.695312 -0.644531 1.765625 -0.976562 1.765625 -1.46875 L 1.765625 -4.953125 C 1.765625 -5.335938 1.71875 -5.617188 1.625 -5.796875 C 1.53125 -5.984375 1.382812 -6.078125 1.1875 -6.078125 C 1 -6.078125 0.691406 -5.984375 0.265625 -5.796875 L 0.25 -5.796875 C 0.207031 -5.796875 0.171875 -5.828125 0.140625 -5.890625 C 0.117188 -5.953125 0.125 -5.988281 0.15625 -6 L 2.546875 -7.171875 C 2.617188 -7.191406 2.660156 -7.203125 2.671875 -7.203125 C 2.796875 -7.203125 2.921875 -7.066406 3.046875 -6.796875 C 3.171875 -6.523438 3.238281 -6.171875 3.25 -5.734375 C 4.101562 -6.734375 5.023438 -7.234375 6.015625 -7.234375 C 6.679688 -7.234375 7.203125 -7.03125 7.578125 -6.625 C 7.953125 -6.21875 8.140625 -5.671875 8.140625 -4.984375 L 8.140625 -1.46875 C 8.140625 -0.976562 8.207031 -0.644531 8.34375 -0.46875 C 8.476562 -0.300781 8.753906 -0.21875 9.171875 -0.21875 Z M 9.171875 -0.21875 "/></g></g></g><g fill="#f0ead6" fill-opacity="1"><g transform="translate(112.008706, 16.886307)"><g><path d="M 4.5625 -0.640625 C 5.257812 -0.628906 5.820312 -0.59375 6.25 -0.53125 C 6.6875 -0.46875 7.066406 -0.296875 7.390625 -0.015625 C 7.710938 0.265625 7.875 0.703125 7.875 1.296875 C 7.875 1.960938 7.660156 2.585938 7.234375 3.171875 C 6.816406 3.765625 6.253906 4.234375 5.546875 4.578125 C 4.847656 4.929688 4.097656 5.109375 3.296875 5.109375 C 2.453125 5.109375 1.769531 4.921875 1.25 4.546875 C 0.738281 4.171875 0.484375 3.679688 0.484375 3.078125 C 0.484375 2.210938 1.101562 1.367188 2.34375 0.546875 C 1.445312 0.378906 1 -0.0507812 1 -0.75 C 1 -1.125 1.101562 -1.46875 1.3125 -1.78125 C 1.53125 -2.09375 1.859375 -2.398438 2.296875 -2.703125 C 1.847656 -2.910156 1.5 -3.207031 1.25 -3.59375 C 1 -3.988281 0.875 -4.40625 0.875 -4.84375 C 0.875 -5.3125 1.019531 -5.722656 1.3125 -6.078125 C 1.601562 -6.429688 1.976562 -6.695312 2.4375 -6.875 C 2.90625 -7.050781 3.410156 -7.140625 3.953125 -7.140625 C 4.722656 -7.140625 5.363281 -6.945312 5.875 -6.5625 C 6.195312 -6.769531 6.515625 -6.925781 6.828125 -7.03125 C 7.148438 -7.132812 7.492188 -7.1875 7.859375 -7.1875 C 7.941406 -7.1875 7.984375 -7.03125 7.984375 -6.71875 C 7.984375 -6.539062 7.960938 -6.359375 7.921875 -6.171875 C 7.878906 -5.992188 7.832031 -5.925781 7.78125 -5.96875 C 7.269531 -6.15625 6.832031 -6.25 6.46875 -6.25 C 6.363281 -6.25 6.285156 -6.242188 6.234375 -6.234375 C 6.585938 -5.847656 6.765625 -5.390625 6.765625 -4.859375 C 6.765625 -4.398438 6.617188 -3.976562 6.328125 -3.59375 C 6.035156 -3.21875 5.648438 -2.925781 5.171875 -2.71875 C 4.703125 -2.519531 4.203125 -2.421875 3.671875 -2.421875 C 3.273438 -2.421875 2.910156 -2.472656 2.578125 -2.578125 C 2.316406 -2.328125 2.1875 -2.023438 2.1875 -1.671875 C 2.1875 -1.234375 2.363281 -0.953125 2.71875 -0.828125 C 3.070312 -0.710938 3.6875 -0.648438 4.5625 -0.640625 Z M 3.40625 -6.828125 C 2.75 -6.828125 2.421875 -6.332031 2.421875 -5.34375 C 2.421875 -4.832031 2.5 -4.378906 2.65625 -3.984375 C 2.820312 -3.585938 3.035156 -3.28125 3.296875 -3.0625 C 3.554688 -2.84375 3.828125 -2.734375 4.109375 -2.734375 C 4.421875 -2.734375 4.679688 -2.867188 4.890625 -3.140625 C 5.097656 -3.410156 5.203125 -3.828125 5.203125 -4.390625 C 5.203125 -4.890625 5.113281 -5.320312 4.9375 -5.6875 C 4.757812 -6.0625 4.535156 -6.34375 4.265625 -6.53125 C 3.992188 -6.726562 3.707031 -6.828125 3.40625 -6.828125 Z M 4.28125 4.546875 C 4.96875 4.546875 5.519531 4.34375 5.9375 3.9375 C 6.351562 3.53125 6.5625 2.984375 6.5625 2.296875 C 6.5625 1.785156 6.445312 1.414062 6.21875 1.1875 C 6 0.957031 5.703125 0.8125 5.328125 0.75 C 4.960938 0.6875 4.441406 0.65625 3.765625 0.65625 C 3.421875 0.65625 3.09375 0.632812 2.78125 0.59375 C 2.207031 1.007812 1.921875 1.554688 1.921875 2.234375 C 1.921875 2.960938 2.140625 3.53125 2.578125 3.9375 C 3.023438 4.34375 3.59375 4.546875 4.28125 4.546875 Z M 4.28125 4.546875 "/></g></g></g></g></g><g transform="matrix(1, 0, 0, 1, 26, 71)"><g clip-path="url(#c8d8d26f65)"><g fill="#f0ead6" fill-opacity="1"><g transform="translate(0.95475, 12.211793)"><g><path d="M 1.890625 -6.453125 C 1.890625 -6.140625 1.96875 -5.859375 2.125 -5.609375 C 2.289062 -5.367188 2.488281 -5.160156 2.71875 -4.984375 C 2.945312 -4.816406 3.265625 -4.613281 3.671875 -4.375 C 4.109375 -4.113281 4.445312 -3.890625 4.6875 -3.703125 C 4.9375 -3.515625 5.144531 -3.28125 5.3125 -3 C 5.488281 -2.726562 5.578125 -2.398438 5.578125 -2.015625 C 5.578125 -1.609375 5.472656 -1.238281 5.265625 -0.90625 C 5.054688 -0.582031 4.753906 -0.320312 4.359375 -0.125 C 3.960938 0.0625 3.492188 0.15625 2.953125 0.15625 C 2.273438 0.15625 1.671875 0.00390625 1.140625 -0.296875 C 1.097656 -0.328125 1.066406 -0.359375 1.046875 -0.390625 C 1.035156 -0.421875 1.023438 -0.472656 1.015625 -0.546875 L 0.875 -2.3125 C 0.863281 -2.34375 0.878906 -2.363281 0.921875 -2.375 C 0.972656 -2.382812 1.003906 -2.375 1.015625 -2.34375 C 1.179688 -1.71875 1.441406 -1.179688 1.796875 -0.734375 C 2.160156 -0.296875 2.644531 -0.078125 3.25 -0.078125 C 3.664062 -0.078125 4.007812 -0.1875 4.28125 -0.40625 C 4.5625 -0.625 4.703125 -0.984375 4.703125 -1.484375 C 4.703125 -1.859375 4.617188 -2.179688 4.453125 -2.453125 C 4.285156 -2.734375 4.078125 -2.96875 3.828125 -3.15625 C 3.585938 -3.34375 3.265625 -3.5625 2.859375 -3.8125 C 2.441406 -4.070312 2.117188 -4.285156 1.890625 -4.453125 C 1.671875 -4.628906 1.476562 -4.847656 1.3125 -5.109375 C 1.15625 -5.378906 1.078125 -5.695312 1.078125 -6.0625 C 1.078125 -6.488281 1.1875 -6.847656 1.40625 -7.140625 C 1.632812 -7.441406 1.9375 -7.664062 2.3125 -7.8125 C 2.6875 -7.96875 3.078125 -8.046875 3.484375 -8.046875 C 4.003906 -8.046875 4.507812 -7.945312 5 -7.75 C 5.125 -7.6875 5.1875 -7.609375 5.1875 -7.515625 L 5.265625 -6 C 5.265625 -5.96875 5.238281 -5.945312 5.1875 -5.9375 C 5.144531 -5.925781 5.117188 -5.941406 5.109375 -5.984375 C 5.023438 -6.429688 4.832031 -6.851562 4.53125 -7.25 C 4.238281 -7.644531 3.816406 -7.84375 3.265625 -7.84375 C 2.816406 -7.84375 2.472656 -7.707031 2.234375 -7.4375 C 2.003906 -7.175781 1.890625 -6.847656 1.890625 -6.453125 Z M 1.890625 -6.453125 "/></g></g></g><g fill="#f0ead6" fill-opacity="1"><g transform="translate(7.207438, 12.211793)"><g><path d="M 3.96875 -0.6875 C 3.988281 -0.6875 4.007812 -0.664062 4.03125 -0.625 C 4.050781 -0.59375 4.046875 -0.570312 4.015625 -0.5625 C 3.703125 -0.300781 3.421875 -0.113281 3.171875 0 C 2.921875 0.101562 2.648438 0.15625 2.359375 0.15625 C 2.003906 0.15625 1.710938 0.0703125 1.484375 -0.09375 C 1.253906 -0.257812 1.140625 -0.53125 1.140625 -0.90625 L 1.140625 -3.859375 C 1.140625 -4.054688 1.117188 -4.203125 1.078125 -4.296875 C 1.046875 -4.398438 0.984375 -4.46875 0.890625 -4.5 C 0.804688 -4.53125 0.671875 -4.546875 0.484375 -4.546875 C 0.453125 -4.546875 0.4375 -4.578125 0.4375 -4.640625 C 0.4375 -4.703125 0.453125 -4.734375 0.484375 -4.734375 C 0.835938 -4.734375 1.125 -4.816406 1.34375 -4.984375 C 1.570312 -5.160156 1.707031 -5.398438 1.75 -5.703125 C 1.757812 -5.722656 1.796875 -5.734375 1.859375 -5.734375 C 1.921875 -5.734375 1.953125 -5.722656 1.953125 -5.703125 L 1.953125 -4.734375 C 2.347656 -4.742188 2.921875 -4.785156 3.671875 -4.859375 C 3.703125 -4.859375 3.722656 -4.828125 3.734375 -4.765625 C 3.753906 -4.710938 3.765625 -4.648438 3.765625 -4.578125 C 3.765625 -4.503906 3.75 -4.429688 3.71875 -4.359375 C 3.695312 -4.285156 3.671875 -4.253906 3.640625 -4.265625 C 3.171875 -4.367188 2.609375 -4.429688 1.953125 -4.453125 L 1.953125 -1.34375 C 1.953125 -0.664062 2.28125 -0.328125 2.9375 -0.328125 C 3.289062 -0.328125 3.625 -0.445312 3.9375 -0.6875 Z M 3.96875 -0.6875 "/></g></g></g><g fill="#f0ead6" fill-opacity="1"><g transform="translate(11.476951, 12.211793)"><g><path d="M 5.265625 -0.6875 C 5.296875 -0.6875 5.3125 -0.664062 5.3125 -0.625 C 5.320312 -0.582031 5.3125 -0.554688 5.28125 -0.546875 L 3.984375 0.078125 C 3.953125 0.0859375 3.914062 0.09375 3.875 0.09375 C 3.757812 0.09375 3.65625 0.0195312 3.5625 -0.125 C 3.476562 -0.269531 3.421875 -0.46875 3.390625 -0.71875 L 2.75 -0.296875 C 2.550781 -0.160156 2.367188 -0.0625 2.203125 0 C 2.035156 0.0625 1.863281 0.09375 1.6875 0.09375 C 1.363281 0.09375 1.113281 0.0078125 0.9375 -0.15625 C 0.757812 -0.320312 0.671875 -0.53125 0.671875 -0.78125 C 0.671875 -1.050781 0.773438 -1.273438 0.984375 -1.453125 C 1.203125 -1.640625 1.546875 -1.820312 2.015625 -2 L 3.375 -2.484375 L 3.375 -3.328125 C 3.375 -3.828125 3.304688 -4.191406 3.171875 -4.421875 C 3.046875 -4.648438 2.859375 -4.765625 2.609375 -4.765625 C 2.328125 -4.765625 2.113281 -4.664062 1.96875 -4.46875 C 1.820312 -4.28125 1.726562 -4.0625 1.6875 -3.8125 C 1.644531 -3.445312 1.472656 -3.265625 1.171875 -3.265625 C 1.023438 -3.265625 0.910156 -3.300781 0.828125 -3.375 C 0.753906 -3.445312 0.71875 -3.539062 0.71875 -3.65625 C 0.71875 -3.863281 0.847656 -4.070312 1.109375 -4.28125 C 1.378906 -4.488281 1.703125 -4.660156 2.078125 -4.796875 C 2.453125 -4.929688 2.785156 -5 3.078125 -5 C 3.421875 -5 3.6875 -4.882812 3.875 -4.65625 C 4.0625 -4.4375 4.15625 -4.117188 4.15625 -3.703125 L 4.15625 -1.359375 C 4.15625 -1.078125 4.195312 -0.867188 4.28125 -0.734375 C 4.363281 -0.597656 4.488281 -0.53125 4.65625 -0.53125 C 4.800781 -0.53125 4.992188 -0.582031 5.234375 -0.6875 Z M 3.375 -0.90625 L 3.375 -2.3125 L 2.3125 -1.890625 C 2.082031 -1.796875 1.910156 -1.6875 1.796875 -1.5625 C 1.679688 -1.445312 1.625 -1.296875 1.625 -1.109375 C 1.625 -0.910156 1.6875 -0.742188 1.8125 -0.609375 C 1.945312 -0.484375 2.113281 -0.421875 2.3125 -0.421875 C 2.476562 -0.421875 2.664062 -0.484375 2.875 -0.609375 Z M 3.375 -0.90625 "/></g></g></g><g fill="#f0ead6" fill-opacity="1"><g transform="translate(16.782262, 12.211793)"><g><path d="M 3.96875 -0.6875 C 3.988281 -0.6875 4.007812 -0.664062 4.03125 -0.625 C 4.050781 -0.59375 4.046875 -0.570312 4.015625 -0.5625 C 3.703125 -0.300781 3.421875 -0.113281 3.171875 0 C 2.921875 0.101562 2.648438 0.15625 2.359375 0.15625 C 2.003906 0.15625 1.710938 0.0703125 1.484375 -0.09375 C 1.253906 -0.257812 1.140625 -0.53125 1.140625 -0.90625 L 1.140625 -3.859375 C 1.140625 -4.054688 1.117188 -4.203125 1.078125 -4.296875 C 1.046875 -4.398438 0.984375 -4.46875 0.890625 -4.5 C 0.804688 -4.53125 0.671875 -4.546875 0.484375 -4.546875 C 0.453125 -4.546875 0.4375 -4.578125 0.4375 -4.640625 C 0.4375 -4.703125 0.453125 -4.734375 0.484375 -4.734375 C 0.835938 -4.734375 1.125 -4.816406 1.34375 -4.984375 C 1.570312 -5.160156 1.707031 -5.398438 1.75 -5.703125 C 1.757812 -5.722656 1.796875 -5.734375 1.859375 -5.734375 C 1.921875 -5.734375 1.953125 -5.722656 1.953125 -5.703125 L 1.953125 -4.734375 C 2.347656 -4.742188 2.921875 -4.785156 3.671875 -4.859375 C 3.703125 -4.859375 3.722656 -4.828125 3.734375 -4.765625 C 3.753906 -4.710938 3.765625 -4.648438 3.765625 -4.578125 C 3.765625 -4.503906 3.75 -4.429688 3.71875 -4.359375 C 3.695312 -4.285156 3.671875 -4.253906 3.640625 -4.265625 C 3.171875 -4.367188 2.609375 -4.429688 1.953125 -4.453125 L 1.953125 -1.34375 C 1.953125 -0.664062 2.28125 -0.328125 2.9375 -0.328125 C 3.289062 -0.328125 3.625 -0.445312 3.9375 -0.6875 Z M 3.96875 -0.6875 "/></g></g></g><g fill="#f0ead6" fill-opacity="1"><g transform="translate(21.051775, 12.211793)"><g><path d="M 4.59375 -0.734375 C 4.625 -0.734375 4.648438 -0.71875 4.671875 -0.6875 C 4.691406 -0.65625 4.691406 -0.628906 4.671875 -0.609375 C 4.109375 -0.0976562 3.488281 0.15625 2.8125 0.15625 C 2.3125 0.15625 1.882812 0.046875 1.53125 -0.171875 C 1.175781 -0.398438 0.90625 -0.703125 0.71875 -1.078125 C 0.53125 -1.453125 0.4375 -1.851562 0.4375 -2.28125 C 0.4375 -2.78125 0.554688 -3.234375 0.796875 -3.640625 C 1.035156 -4.054688 1.363281 -4.382812 1.78125 -4.625 C 2.195312 -4.875 2.648438 -5 3.140625 -5 C 3.628906 -5 4.003906 -4.875 4.265625 -4.625 C 4.523438 -4.375 4.65625 -4.015625 4.65625 -3.546875 C 4.65625 -3.316406 4.601562 -3.203125 4.5 -3.203125 L 1.375 -3.203125 C 1.363281 -3.015625 1.359375 -2.867188 1.359375 -2.765625 C 1.359375 -2.035156 1.53125 -1.445312 1.875 -1 C 2.21875 -0.550781 2.707031 -0.328125 3.34375 -0.328125 C 3.59375 -0.328125 3.800781 -0.359375 3.96875 -0.421875 C 4.144531 -0.484375 4.351562 -0.585938 4.59375 -0.734375 Z M 2.71875 -4.734375 C 2.363281 -4.734375 2.070312 -4.613281 1.84375 -4.375 C 1.613281 -4.132812 1.46875 -3.800781 1.40625 -3.375 L 3.703125 -3.421875 C 3.703125 -3.847656 3.613281 -4.171875 3.4375 -4.390625 C 3.269531 -4.617188 3.03125 -4.734375 2.71875 -4.734375 Z M 2.71875 -4.734375 "/></g></g></g><g fill="#f0ead6" fill-opacity="1"><g transform="translate(26.218137, 12.211793)"><g/></g></g><g fill="#f0ead6" fill-opacity="1"><g transform="translate(29.173953, 12.211793)"><g><path d="M 8.9375 -7.90625 C 8.957031 -7.90625 8.96875 -7.878906 8.96875 -7.828125 C 8.96875 -7.773438 8.957031 -7.75 8.9375 -7.75 C 8.59375 -7.75 8.335938 -7.644531 8.171875 -7.4375 C 8.003906 -7.226562 7.921875 -6.90625 7.921875 -6.46875 L 7.921875 0.15625 C 7.921875 0.175781 7.898438 0.191406 7.859375 0.203125 C 7.816406 0.210938 7.789062 0.207031 7.78125 0.1875 L 1.890625 -6.859375 L 1.84375 -6.921875 L 1.84375 -1.421875 C 1.84375 -0.984375 1.921875 -0.660156 2.078125 -0.453125 C 2.242188 -0.253906 2.492188 -0.15625 2.828125 -0.15625 C 2.859375 -0.15625 2.875 -0.128906 2.875 -0.078125 C 2.875 -0.0234375 2.859375 0 2.828125 0 C 2.628906 0 2.46875 -0.00390625 2.34375 -0.015625 L 1.703125 -0.03125 L 1.03125 -0.015625 C 0.90625 -0.00390625 0.726562 0 0.5 0 C 0.476562 0 0.46875 -0.0234375 0.46875 -0.078125 C 0.46875 -0.128906 0.476562 -0.15625 0.5 -0.15625 C 0.851562 -0.15625 1.113281 -0.253906 1.28125 -0.453125 C 1.445312 -0.660156 1.53125 -0.984375 1.53125 -1.421875 L 1.53125 -7.25 C 1.1875 -7.582031 0.835938 -7.75 0.484375 -7.75 C 0.453125 -7.75 0.4375 -7.773438 0.4375 -7.828125 C 0.4375 -7.878906 0.453125 -7.90625 0.484375 -7.90625 L 0.953125 -7.890625 C 1.046875 -7.878906 1.1875 -7.875 1.375 -7.875 L 1.96875 -7.890625 C 2.039062 -7.898438 2.128906 -7.90625 2.234375 -7.90625 C 2.304688 -7.90625 2.351562 -7.890625 2.375 -7.859375 C 2.40625 -7.828125 2.457031 -7.757812 2.53125 -7.65625 C 2.632812 -7.507812 2.734375 -7.375 2.828125 -7.25 L 7.609375 -1.453125 L 7.609375 -6.46875 C 7.609375 -6.90625 7.53125 -7.226562 7.375 -7.4375 C 7.226562 -7.644531 6.984375 -7.75 6.640625 -7.75 C 6.617188 -7.75 6.609375 -7.773438 6.609375 -7.828125 C 6.609375 -7.878906 6.617188 -7.90625 6.640625 -7.90625 L 7.125 -7.890625 C 7.394531 -7.867188 7.613281 -7.859375 7.78125 -7.859375 C 7.9375 -7.859375 8.148438 -7.867188 8.421875 -7.890625 Z M 8.9375 -7.90625 "/></g></g></g><g fill="#f0ead6" fill-opacity="1"><g transform="translate(38.369829, 12.211793)"><g><path d="M 5.265625 -0.6875 C 5.296875 -0.6875 5.3125 -0.664062 5.3125 -0.625 C 5.320312 -0.582031 5.3125 -0.554688 5.28125 -0.546875 L 3.984375 0.078125 C 3.953125 0.0859375 3.914062 0.09375 3.875 0.09375 C 3.757812 0.09375 3.65625 0.0195312 3.5625 -0.125 C 3.476562 -0.269531 3.421875 -0.46875 3.390625 -0.71875 L 2.75 -0.296875 C 2.550781 -0.160156 2.367188 -0.0625 2.203125 0 C 2.035156 0.0625 1.863281 0.09375 1.6875 0.09375 C 1.363281 0.09375 1.113281 0.0078125 0.9375 -0.15625 C 0.757812 -0.320312 0.671875 -0.53125 0.671875 -0.78125 C 0.671875 -1.050781 0.773438 -1.273438 0.984375 -1.453125 C 1.203125 -1.640625 1.546875 -1.820312 2.015625 -2 L 3.375 -2.484375 L 3.375 -3.328125 C 3.375 -3.828125 3.304688 -4.191406 3.171875 -4.421875 C 3.046875 -4.648438 2.859375 -4.765625 2.609375 -4.765625 C 2.328125 -4.765625 2.113281 -4.664062 1.96875 -4.46875 C 1.820312 -4.28125 1.726562 -4.0625 1.6875 -3.8125 C 1.644531 -3.445312 1.472656 -3.265625 1.171875 -3.265625 C 1.023438 -3.265625 0.910156 -3.300781 0.828125 -3.375 C 0.753906 -3.445312 0.71875 -3.539062 0.71875 -3.65625 C 0.71875 -3.863281 0.847656 -4.070312 1.109375 -4.28125 C 1.378906 -4.488281 1.703125 -4.660156 2.078125 -4.796875 C 2.453125 -4.929688 2.785156 -5 3.078125 -5 C 3.421875 -5 3.6875 -4.882812 3.875 -4.65625 C 4.0625 -4.4375 4.15625 -4.117188 4.15625 -3.703125 L 4.15625 -1.359375 C 4.15625 -1.078125 4.195312 -0.867188 4.28125 -0.734375 C 4.363281 -0.597656 4.488281 -0.53125 4.65625 -0.53125 C 4.800781 -0.53125 4.992188 -0.582031 5.234375 -0.6875 Z M 3.375 -0.90625 L 3.375 -2.3125 L 2.3125 -1.890625 C 2.082031 -1.796875 1.910156 -1.6875 1.796875 -1.5625 C 1.679688 -1.445312 1.625 -1.296875 1.625 -1.109375 C 1.625 -0.910156 1.6875 -0.742188 1.8125 -0.609375 C 1.945312 -0.484375 2.113281 -0.421875 2.3125 -0.421875 C 2.476562 -0.421875 2.664062 -0.484375 2.875 -0.609375 Z M 3.375 -0.90625 "/></g></g></g><g fill="#f0ead6" fill-opacity="1"><g transform="translate(43.675138, 12.211793)"><g><path d="M 3.96875 -0.6875 C 3.988281 -0.6875 4.007812 -0.664062 4.03125 -0.625 C 4.050781 -0.59375 4.046875 -0.570312 4.015625 -0.5625 C 3.703125 -0.300781 3.421875 -0.113281 3.171875 0 C 2.921875 0.101562 2.648438 0.15625 2.359375 0.15625 C 2.003906 0.15625 1.710938 0.0703125 1.484375 -0.09375 C 1.253906 -0.257812 1.140625 -0.53125 1.140625 -0.90625 L 1.140625 -3.859375 C 1.140625 -4.054688 1.117188 -4.203125 1.078125 -4.296875 C 1.046875 -4.398438 0.984375 -4.46875 0.890625 -4.5 C 0.804688 -4.53125 0.671875 -4.546875 0.484375 -4.546875 C 0.453125 -4.546875 0.4375 -4.578125 0.4375 -4.640625 C 0.4375 -4.703125 0.453125 -4.734375 0.484375 -4.734375 C 0.835938 -4.734375 1.125 -4.816406 1.34375 -4.984375 C 1.570312 -5.160156 1.707031 -5.398438 1.75 -5.703125 C 1.757812 -5.722656 1.796875 -5.734375 1.859375 -5.734375 C 1.921875 -5.734375 1.953125 -5.722656 1.953125 -5.703125 L 1.953125 -4.734375 C 2.347656 -4.742188 2.921875 -4.785156 3.671875 -4.859375 C 3.703125 -4.859375 3.722656 -4.828125 3.734375 -4.765625 C 3.753906 -4.710938 3.765625 -4.648438 3.765625 -4.578125 C 3.765625 -4.503906 3.75 -4.429688 3.71875 -4.359375 C 3.695312 -4.285156 3.671875 -4.253906 3.640625 -4.265625 C 3.171875 -4.367188 2.609375 -4.429688 1.953125 -4.453125 L 1.953125 -1.34375 C 1.953125 -0.664062 2.28125 -0.328125 2.9375 -0.328125 C 3.289062 -0.328125 3.625 -0.445312 3.9375 -0.6875 Z M 3.96875 -0.6875 "/></g></g></g><g fill="#f0ead6" fill-opacity="1"><g transform="translate(47.944653, 12.211793)"><g><path d="M 1.734375 -6.4375 C 1.546875 -6.4375 1.398438 -6.484375 1.296875 -6.578125 C 1.191406 -6.679688 1.140625 -6.828125 1.140625 -7.015625 C 1.140625 -7.179688 1.191406 -7.316406 1.296875 -7.421875 C 1.398438 -7.523438 1.546875 -7.578125 1.734375 -7.578125 C 1.910156 -7.578125 2.046875 -7.523438 2.140625 -7.421875 C 2.242188 -7.316406 2.296875 -7.179688 2.296875 -7.015625 C 2.296875 -6.828125 2.242188 -6.679688 2.140625 -6.578125 C 2.046875 -6.484375 1.910156 -6.4375 1.734375 -6.4375 Z M 0.640625 0 C 0.617188 0 0.609375 -0.0234375 0.609375 -0.078125 C 0.609375 -0.128906 0.617188 -0.15625 0.640625 -0.15625 C 0.953125 -0.15625 1.160156 -0.210938 1.265625 -0.328125 C 1.367188 -0.441406 1.421875 -0.675781 1.421875 -1.03125 L 1.421875 -3.375 C 1.421875 -3.664062 1.390625 -3.878906 1.328125 -4.015625 C 1.265625 -4.148438 1.160156 -4.21875 1.015625 -4.21875 C 0.867188 -4.21875 0.679688 -4.160156 0.453125 -4.046875 L 0.4375 -4.046875 C 0.40625 -4.046875 0.378906 -4.066406 0.359375 -4.109375 C 0.347656 -4.148438 0.359375 -4.179688 0.390625 -4.203125 L 2.078125 -4.984375 L 2.125 -5 C 2.144531 -5 2.171875 -4.984375 2.203125 -4.953125 C 2.234375 -4.929688 2.25 -4.90625 2.25 -4.875 C 2.25 -4.820312 2.242188 -4.65625 2.234375 -4.375 C 2.222656 -4.09375 2.21875 -3.765625 2.21875 -3.390625 L 2.21875 -1.03125 C 2.21875 -0.78125 2.238281 -0.59375 2.28125 -0.46875 C 2.320312 -0.351562 2.394531 -0.269531 2.5 -0.21875 C 2.613281 -0.175781 2.78125 -0.15625 3 -0.15625 C 3.019531 -0.15625 3.03125 -0.128906 3.03125 -0.078125 C 3.03125 -0.0234375 3.019531 0 3 0 C 2.789062 0 2.625 -0.00390625 2.5 -0.015625 L 1.8125 -0.03125 L 1.109375 -0.015625 C 0.992188 -0.00390625 0.835938 0 0.640625 0 Z M 0.640625 0 "/></g></g></g><g fill="#f0ead6" fill-opacity="1"><g transform="translate(51.367838, 12.211793)"><g><path d="M 2.9375 0.171875 C 2.4375 0.171875 2 0.0507812 1.625 -0.1875 C 1.25 -0.4375 0.957031 -0.765625 0.75 -1.171875 C 0.539062 -1.578125 0.4375 -2.019531 0.4375 -2.5 C 0.4375 -3.050781 0.570312 -3.515625 0.84375 -3.890625 C 1.113281 -4.273438 1.457031 -4.5625 1.875 -4.75 C 2.289062 -4.945312 2.71875 -5.046875 3.15625 -5.046875 C 3.65625 -5.046875 4.09375 -4.921875 4.46875 -4.671875 C 4.84375 -4.429688 5.128906 -4.109375 5.328125 -3.703125 C 5.535156 -3.304688 5.640625 -2.882812 5.640625 -2.4375 C 5.640625 -1.914062 5.515625 -1.457031 5.265625 -1.0625 C 5.023438 -0.675781 4.695312 -0.375 4.28125 -0.15625 C 3.875 0.0625 3.425781 0.171875 2.9375 0.171875 Z M 3.296875 -0.078125 C 3.734375 -0.078125 4.070312 -0.238281 4.3125 -0.5625 C 4.550781 -0.894531 4.671875 -1.398438 4.671875 -2.078125 C 4.671875 -2.609375 4.585938 -3.078125 4.421875 -3.484375 C 4.253906 -3.898438 4.019531 -4.222656 3.71875 -4.453125 C 3.425781 -4.679688 3.101562 -4.796875 2.75 -4.796875 C 2.3125 -4.796875 1.972656 -4.632812 1.734375 -4.3125 C 1.503906 -3.988281 1.390625 -3.519531 1.390625 -2.90625 C 1.390625 -2.382812 1.472656 -1.90625 1.640625 -1.46875 C 1.804688 -1.039062 2.03125 -0.703125 2.3125 -0.453125 C 2.601562 -0.203125 2.929688 -0.078125 3.296875 -0.078125 Z M 3.296875 -0.078125 "/></g></g></g><g fill="#f0ead6" fill-opacity="1"><g transform="translate(57.443685, 12.211793)"><g><path d="M 6.296875 -0.15625 C 6.316406 -0.15625 6.328125 -0.128906 6.328125 -0.078125 C 6.328125 -0.0234375 6.316406 0 6.296875 0 C 6.085938 0 5.921875 -0.00390625 5.796875 -0.015625 L 5.125 -0.03125 L 4.4375 -0.015625 C 4.320312 -0.00390625 4.160156 0 3.953125 0 C 3.929688 0 3.921875 -0.0234375 3.921875 -0.078125 C 3.921875 -0.128906 3.929688 -0.15625 3.953125 -0.15625 C 4.171875 -0.15625 4.332031 -0.175781 4.4375 -0.21875 C 4.539062 -0.269531 4.613281 -0.351562 4.65625 -0.46875 C 4.695312 -0.59375 4.71875 -0.78125 4.71875 -1.03125 L 4.71875 -3.03125 C 4.71875 -3.519531 4.625 -3.878906 4.4375 -4.109375 C 4.257812 -4.347656 3.972656 -4.46875 3.578125 -4.46875 C 3.328125 -4.46875 3.070312 -4.398438 2.8125 -4.265625 C 2.5625 -4.140625 2.332031 -3.960938 2.125 -3.734375 L 2.125 -1.03125 C 2.125 -0.78125 2.140625 -0.59375 2.171875 -0.46875 C 2.210938 -0.351562 2.285156 -0.269531 2.390625 -0.21875 C 2.503906 -0.175781 2.671875 -0.15625 2.890625 -0.15625 C 2.921875 -0.15625 2.9375 -0.128906 2.9375 -0.078125 C 2.9375 -0.0234375 2.921875 0 2.890625 0 C 2.679688 0 2.519531 -0.00390625 2.40625 -0.015625 L 1.71875 -0.03125 L 1.03125 -0.015625 C 0.914062 -0.00390625 0.757812 0 0.5625 0 C 0.53125 0 0.515625 -0.0234375 0.515625 -0.078125 C 0.515625 -0.128906 0.53125 -0.15625 0.5625 -0.15625 C 0.78125 -0.15625 0.941406 -0.175781 1.046875 -0.21875 C 1.148438 -0.269531 1.21875 -0.351562 1.25 -0.46875 C 1.289062 -0.59375 1.3125 -0.78125 1.3125 -1.03125 L 1.3125 -3.5 C 1.3125 -3.78125 1.273438 -3.984375 1.203125 -4.109375 C 1.140625 -4.234375 1.035156 -4.296875 0.890625 -4.296875 C 0.753906 -4.296875 0.53125 -4.234375 0.21875 -4.109375 L 0.203125 -4.109375 C 0.171875 -4.109375 0.144531 -4.125 0.125 -4.15625 C 0.101562 -4.195312 0.113281 -4.226562 0.15625 -4.25 L 1.671875 -4.984375 L 1.75 -5 C 1.832031 -5 1.910156 -4.898438 1.984375 -4.703125 C 2.066406 -4.515625 2.113281 -4.265625 2.125 -3.953125 C 2.738281 -4.679688 3.382812 -5.046875 4.0625 -5.046875 C 4.519531 -5.046875 4.878906 -4.910156 5.140625 -4.640625 C 5.398438 -4.367188 5.53125 -3.984375 5.53125 -3.484375 L 5.53125 -1.03125 C 5.53125 -0.78125 5.546875 -0.59375 5.578125 -0.46875 C 5.617188 -0.351562 5.691406 -0.269531 5.796875 -0.21875 C 5.910156 -0.175781 6.078125 -0.15625 6.296875 -0.15625 Z M 6.296875 -0.15625 "/></g></g></g><g fill="#f0ead6" fill-opacity="1"><g transform="translate(63.999534, 12.211793)"><g><path d="M 5.265625 -0.6875 C 5.296875 -0.6875 5.3125 -0.664062 5.3125 -0.625 C 5.320312 -0.582031 5.3125 -0.554688 5.28125 -0.546875 L 3.984375 0.078125 C 3.953125 0.0859375 3.914062 0.09375 3.875 0.09375 C 3.757812 0.09375 3.65625 0.0195312 3.5625 -0.125 C 3.476562 -0.269531 3.421875 -0.46875 3.390625 -0.71875 L 2.75 -0.296875 C 2.550781 -0.160156 2.367188 -0.0625 2.203125 0 C 2.035156 0.0625 1.863281 0.09375 1.6875 0.09375 C 1.363281 0.09375 1.113281 0.0078125 0.9375 -0.15625 C 0.757812 -0.320312 0.671875 -0.53125 0.671875 -0.78125 C 0.671875 -1.050781 0.773438 -1.273438 0.984375 -1.453125 C 1.203125 -1.640625 1.546875 -1.820312 2.015625 -2 L 3.375 -2.484375 L 3.375 -3.328125 C 3.375 -3.828125 3.304688 -4.191406 3.171875 -4.421875 C 3.046875 -4.648438 2.859375 -4.765625 2.609375 -4.765625 C 2.328125 -4.765625 2.113281 -4.664062 1.96875 -4.46875 C 1.820312 -4.28125 1.726562 -4.0625 1.6875 -3.8125 C 1.644531 -3.445312 1.472656 -3.265625 1.171875 -3.265625 C 1.023438 -3.265625 0.910156 -3.300781 0.828125 -3.375 C 0.753906 -3.445312 0.71875 -3.539062 0.71875 -3.65625 C 0.71875 -3.863281 0.847656 -4.070312 1.109375 -4.28125 C 1.378906 -4.488281 1.703125 -4.660156 2.078125 -4.796875 C 2.453125 -4.929688 2.785156 -5 3.078125 -5 C 3.421875 -5 3.6875 -4.882812 3.875 -4.65625 C 4.0625 -4.4375 4.15625 -4.117188 4.15625 -3.703125 L 4.15625 -1.359375 C 4.15625 -1.078125 4.195312 -0.867188 4.28125 -0.734375 C 4.363281 -0.597656 4.488281 -0.53125 4.65625 -0.53125 C 4.800781 -0.53125 4.992188 -0.582031 5.234375 -0.6875 Z M 3.375 -0.90625 L 3.375 -2.3125 L 2.3125 -1.890625 C 2.082031 -1.796875 1.910156 -1.6875 1.796875 -1.5625 C 1.679688 -1.445312 1.625 -1.296875 1.625 -1.109375 C 1.625 -0.910156 1.6875 -0.742188 1.8125 -0.609375 C 1.945312 -0.484375 2.113281 -0.421875 2.3125 -0.421875 C 2.476562 -0.421875 2.664062 -0.484375 2.875 -0.609375 Z M 3.375 -0.90625 "/></g></g></g><g fill="#f0ead6" fill-opacity="1"><g transform="translate(69.304847, 12.211793)"><g><path d="M 0.5 0 C 0.46875 0 0.453125 -0.0234375 0.453125 -0.078125 C 0.453125 -0.128906 0.46875 -0.15625 0.5 -0.15625 C 0.800781 -0.15625 1.003906 -0.210938 1.109375 -0.328125 C 1.210938 -0.441406 1.265625 -0.675781 1.265625 -1.03125 L 1.265625 -7.53125 C 1.265625 -7.832031 1.234375 -8.050781 1.171875 -8.1875 C 1.117188 -8.320312 1.023438 -8.390625 0.890625 -8.390625 C 0.753906 -8.390625 0.5625 -8.332031 0.3125 -8.21875 L 0.296875 -8.21875 C 0.265625 -8.21875 0.238281 -8.238281 0.21875 -8.28125 C 0.195312 -8.332031 0.203125 -8.363281 0.234375 -8.375 L 1.90625 -9.15625 L 1.953125 -9.171875 C 1.984375 -9.171875 2.015625 -9.15625 2.046875 -9.125 C 2.078125 -9.101562 2.09375 -9.078125 2.09375 -9.046875 L 2.09375 -1.03125 C 2.09375 -0.675781 2.140625 -0.441406 2.234375 -0.328125 C 2.335938 -0.210938 2.550781 -0.15625 2.875 -0.15625 C 2.894531 -0.15625 2.90625 -0.128906 2.90625 -0.078125 C 2.90625 -0.0234375 2.894531 0 2.875 0 C 2.664062 0 2.5 -0.00390625 2.375 -0.015625 L 1.6875 -0.03125 L 0.96875 -0.015625 C 0.851562 -0.00390625 0.695312 0 0.5 0 Z M 0.5 0 "/></g></g></g><g fill="#f0ead6" fill-opacity="1"><g transform="translate(72.589089, 12.211793)"><g/></g></g><g fill="#f0ead6" fill-opacity="1"><g transform="translate(75.544901, 12.211793)"><g><path d="M 1.890625 -6.453125 C 1.890625 -6.140625 1.96875 -5.859375 2.125 -5.609375 C 2.289062 -5.367188 2.488281 -5.160156 2.71875 -4.984375 C 2.945312 -4.816406 3.265625 -4.613281 3.671875 -4.375 C 4.109375 -4.113281 4.445312 -3.890625 4.6875 -3.703125 C 4.9375 -3.515625 5.144531 -3.28125 5.3125 -3 C 5.488281 -2.726562 5.578125 -2.398438 5.578125 -2.015625 C 5.578125 -1.609375 5.472656 -1.238281 5.265625 -0.90625 C 5.054688 -0.582031 4.753906 -0.320312 4.359375 -0.125 C 3.960938 0.0625 3.492188 0.15625 2.953125 0.15625 C 2.273438 0.15625 1.671875 0.00390625 1.140625 -0.296875 C 1.097656 -0.328125 1.066406 -0.359375 1.046875 -0.390625 C 1.035156 -0.421875 1.023438 -0.472656 1.015625 -0.546875 L 0.875 -2.3125 C 0.863281 -2.34375 0.878906 -2.363281 0.921875 -2.375 C 0.972656 -2.382812 1.003906 -2.375 1.015625 -2.34375 C 1.179688 -1.71875 1.441406 -1.179688 1.796875 -0.734375 C 2.160156 -0.296875 2.644531 -0.078125 3.25 -0.078125 C 3.664062 -0.078125 4.007812 -0.1875 4.28125 -0.40625 C 4.5625 -0.625 4.703125 -0.984375 4.703125 -1.484375 C 4.703125 -1.859375 4.617188 -2.179688 4.453125 -2.453125 C 4.285156 -2.734375 4.078125 -2.96875 3.828125 -3.15625 C 3.585938 -3.34375 3.265625 -3.5625 2.859375 -3.8125 C 2.441406 -4.070312 2.117188 -4.285156 1.890625 -4.453125 C 1.671875 -4.628906 1.476562 -4.847656 1.3125 -5.109375 C 1.15625 -5.378906 1.078125 -5.695312 1.078125 -6.0625 C 1.078125 -6.488281 1.1875 -6.847656 1.40625 -7.140625 C 1.632812 -7.441406 1.9375 -7.664062 2.3125 -7.8125 C 2.6875 -7.96875 3.078125 -8.046875 3.484375 -8.046875 C 4.003906 -8.046875 4.507812 -7.945312 5 -7.75 C 5.125 -7.6875 5.1875 -7.609375 5.1875 -7.515625 L 5.265625 -6 C 5.265625 -5.96875 5.238281 -5.945312 5.1875 -5.9375 C 5.144531 -5.925781 5.117188 -5.941406 5.109375 -5.984375 C 5.023438 -6.429688 4.832031 -6.851562 4.53125 -7.25 C 4.238281 -7.644531 3.816406 -7.84375 3.265625 -7.84375 C 2.816406 -7.84375 2.472656 -7.707031 2.234375 -7.4375 C 2.003906 -7.175781 1.890625 -6.847656 1.890625 -6.453125 Z M 1.890625 -6.453125 "/></g></g></g><g fill="#f0ead6" fill-opacity="1"><g transform="translate(81.797589, 12.211793)"><g><path d="M 4.59375 -0.734375 C 4.625 -0.734375 4.648438 -0.71875 4.671875 -0.6875 C 4.691406 -0.65625 4.691406 -0.628906 4.671875 -0.609375 C 4.109375 -0.0976562 3.488281 0.15625 2.8125 0.15625 C 2.3125 0.15625 1.882812 0.046875 1.53125 -0.171875 C 1.175781 -0.398438 0.90625 -0.703125 0.71875 -1.078125 C 0.53125 -1.453125 0.4375 -1.851562 0.4375 -2.28125 C 0.4375 -2.78125 0.554688 -3.234375 0.796875 -3.640625 C 1.035156 -4.054688 1.363281 -4.382812 1.78125 -4.625 C 2.195312 -4.875 2.648438 -5 3.140625 -5 C 3.628906 -5 4.003906 -4.875 4.265625 -4.625 C 4.523438 -4.375 4.65625 -4.015625 4.65625 -3.546875 C 4.65625 -3.316406 4.601562 -3.203125 4.5 -3.203125 L 1.375 -3.203125 C 1.363281 -3.015625 1.359375 -2.867188 1.359375 -2.765625 C 1.359375 -2.035156 1.53125 -1.445312 1.875 -1 C 2.21875 -0.550781 2.707031 -0.328125 3.34375 -0.328125 C 3.59375 -0.328125 3.800781 -0.359375 3.96875 -0.421875 C 4.144531 -0.484375 4.351562 -0.585938 4.59375 -0.734375 Z M 2.71875 -4.734375 C 2.363281 -4.734375 2.070312 -4.613281 1.84375 -4.375 C 1.613281 -4.132812 1.46875 -3.800781 1.40625 -3.375 L 3.703125 -3.421875 C 3.703125 -3.847656 3.613281 -4.171875 3.4375 -4.390625 C 3.269531 -4.617188 3.03125 -4.734375 2.71875 -4.734375 Z M 2.71875 -4.734375 "/></g></g></g><g fill="#f0ead6" fill-opacity="1"><g transform="translate(86.963955, 12.211793)"><g><path d="M 3.53125 -5 C 3.71875 -5 3.894531 -4.941406 4.0625 -4.828125 C 4.238281 -4.722656 4.328125 -4.59375 4.328125 -4.4375 C 4.328125 -4.320312 4.285156 -4.222656 4.203125 -4.140625 C 4.117188 -4.054688 4.007812 -4.015625 3.875 -4.015625 C 3.789062 -4.015625 3.71875 -4.03125 3.65625 -4.0625 C 3.601562 -4.101562 3.539062 -4.15625 3.46875 -4.21875 C 3.382812 -4.289062 3.304688 -4.34375 3.234375 -4.375 C 3.171875 -4.40625 3.097656 -4.421875 3.015625 -4.421875 C 2.898438 -4.421875 2.785156 -4.378906 2.671875 -4.296875 C 2.554688 -4.210938 2.375 -4.023438 2.125 -3.734375 L 2.125 -1.03125 C 2.125 -0.78125 2.15625 -0.59375 2.21875 -0.46875 C 2.28125 -0.351562 2.394531 -0.269531 2.5625 -0.21875 C 2.726562 -0.175781 2.988281 -0.15625 3.34375 -0.15625 C 3.363281 -0.15625 3.375 -0.128906 3.375 -0.078125 C 3.375 -0.0234375 3.363281 0 3.34375 0 C 3.0625 0 2.835938 -0.00390625 2.671875 -0.015625 L 1.71875 -0.03125 L 1.03125 -0.015625 C 0.914062 -0.00390625 0.757812 0 0.5625 0 C 0.53125 0 0.515625 -0.0234375 0.515625 -0.078125 C 0.515625 -0.128906 0.53125 -0.15625 0.5625 -0.15625 C 0.78125 -0.15625 0.941406 -0.175781 1.046875 -0.21875 C 1.148438 -0.269531 1.21875 -0.351562 1.25 -0.46875 C 1.289062 -0.59375 1.3125 -0.78125 1.3125 -1.03125 L 1.3125 -3.5 C 1.3125 -3.78125 1.273438 -3.984375 1.203125 -4.109375 C 1.140625 -4.234375 1.035156 -4.296875 0.890625 -4.296875 C 0.753906 -4.296875 0.53125 -4.234375 0.21875 -4.109375 L 0.203125 -4.109375 C 0.171875 -4.109375 0.144531 -4.125 0.125 -4.15625 C 0.101562 -4.195312 0.113281 -4.226562 0.15625 -4.25 L 1.671875 -4.984375 L 1.75 -5 C 1.832031 -5 1.910156 -4.898438 1.984375 -4.703125 C 2.066406 -4.515625 2.113281 -4.269531 2.125 -3.96875 C 2.46875 -4.363281 2.738281 -4.632812 2.9375 -4.78125 C 3.144531 -4.925781 3.34375 -5 3.53125 -5 Z M 3.53125 -5 "/></g></g></g><g fill="#f0ead6" fill-opacity="1"><g transform="translate(91.599786, 12.211793)"><g><path d="M 5.5 -4.875 C 5.519531 -4.875 5.53125 -4.847656 5.53125 -4.796875 C 5.53125 -4.753906 5.519531 -4.734375 5.5 -4.734375 C 5.28125 -4.734375 5.09375 -4.65625 4.9375 -4.5 C 4.78125 -4.351562 4.628906 -4.109375 4.484375 -3.765625 L 2.90625 -0.015625 C 2.882812 0.0234375 2.835938 0.046875 2.765625 0.046875 C 2.703125 0.046875 2.65625 0.0234375 2.625 -0.015625 L 0.828125 -3.828125 C 0.660156 -4.203125 0.519531 -4.445312 0.40625 -4.5625 C 0.289062 -4.675781 0.144531 -4.734375 -0.03125 -4.734375 C -0.0507812 -4.734375 -0.0625 -4.753906 -0.0625 -4.796875 C -0.0625 -4.847656 -0.0507812 -4.875 -0.03125 -4.875 C 0.132812 -4.875 0.265625 -4.867188 0.359375 -4.859375 L 1.75 -4.859375 C 1.882812 -4.867188 2.0625 -4.875 2.28125 -4.875 C 2.300781 -4.875 2.3125 -4.847656 2.3125 -4.796875 C 2.3125 -4.753906 2.300781 -4.734375 2.28125 -4.734375 C 1.78125 -4.734375 1.53125 -4.632812 1.53125 -4.4375 C 1.53125 -4.363281 1.546875 -4.296875 1.578125 -4.234375 L 3.078125 -1.078125 L 4.21875 -3.8125 C 4.28125 -3.976562 4.3125 -4.109375 4.3125 -4.203125 C 4.3125 -4.554688 3.988281 -4.734375 3.34375 -4.734375 C 3.320312 -4.734375 3.3125 -4.753906 3.3125 -4.796875 C 3.3125 -4.847656 3.320312 -4.875 3.34375 -4.875 C 3.5625 -4.875 3.734375 -4.867188 3.859375 -4.859375 L 5.09375 -4.859375 C 5.175781 -4.867188 5.3125 -4.875 5.5 -4.875 Z M 5.5 -4.875 "/></g></g></g><g fill="#f0ead6" fill-opacity="1"><g transform="translate(97.094566, 12.211793)"><g><path d="M 1.734375 -6.4375 C 1.546875 -6.4375 1.398438 -6.484375 1.296875 -6.578125 C 1.191406 -6.679688 1.140625 -6.828125 1.140625 -7.015625 C 1.140625 -7.179688 1.191406 -7.316406 1.296875 -7.421875 C 1.398438 -7.523438 1.546875 -7.578125 1.734375 -7.578125 C 1.910156 -7.578125 2.046875 -7.523438 2.140625 -7.421875 C 2.242188 -7.316406 2.296875 -7.179688 2.296875 -7.015625 C 2.296875 -6.828125 2.242188 -6.679688 2.140625 -6.578125 C 2.046875 -6.484375 1.910156 -6.4375 1.734375 -6.4375 Z M 0.640625 0 C 0.617188 0 0.609375 -0.0234375 0.609375 -0.078125 C 0.609375 -0.128906 0.617188 -0.15625 0.640625 -0.15625 C 0.953125 -0.15625 1.160156 -0.210938 1.265625 -0.328125 C 1.367188 -0.441406 1.421875 -0.675781 1.421875 -1.03125 L 1.421875 -3.375 C 1.421875 -3.664062 1.390625 -3.878906 1.328125 -4.015625 C 1.265625 -4.148438 1.160156 -4.21875 1.015625 -4.21875 C 0.867188 -4.21875 0.679688 -4.160156 0.453125 -4.046875 L 0.4375 -4.046875 C 0.40625 -4.046875 0.378906 -4.066406 0.359375 -4.109375 C 0.347656 -4.148438 0.359375 -4.179688 0.390625 -4.203125 L 2.078125 -4.984375 L 2.125 -5 C 2.144531 -5 2.171875 -4.984375 2.203125 -4.953125 C 2.234375 -4.929688 2.25 -4.90625 2.25 -4.875 C 2.25 -4.820312 2.242188 -4.65625 2.234375 -4.375 C 2.222656 -4.09375 2.21875 -3.765625 2.21875 -3.390625 L 2.21875 -1.03125 C 2.21875 -0.78125 2.238281 -0.59375 2.28125 -0.46875 C 2.320312 -0.351562 2.394531 -0.269531 2.5 -0.21875 C 2.613281 -0.175781 2.78125 -0.15625 3 -0.15625 C 3.019531 -0.15625 3.03125 -0.128906 3.03125 -0.078125 C 3.03125 -0.0234375 3.019531 0 3 0 C 2.789062 0 2.625 -0.00390625 2.5 -0.015625 L 1.8125 -0.03125 L 1.109375 -0.015625 C 0.992188 -0.00390625 0.835938 0 0.640625 0 Z M 0.640625 0 "/></g></g></g><g fill="#f0ead6" fill-opacity="1"><g transform="translate(100.517759, 12.211793)"><g><path d="M 2.921875 0.15625 C 2.367188 0.15625 1.90625 0.0351562 1.53125 -0.203125 C 1.164062 -0.441406 0.890625 -0.75 0.703125 -1.125 C 0.523438 -1.507812 0.4375 -1.914062 0.4375 -2.34375 C 0.4375 -2.875 0.578125 -3.335938 0.859375 -3.734375 C 1.140625 -4.140625 1.492188 -4.453125 1.921875 -4.671875 C 2.347656 -4.890625 2.789062 -5 3.25 -5 C 3.625 -5 3.960938 -4.921875 4.265625 -4.765625 C 4.578125 -4.609375 4.734375 -4.421875 4.734375 -4.203125 C 4.734375 -4.066406 4.6875 -3.957031 4.59375 -3.875 C 4.507812 -3.789062 4.398438 -3.75 4.265625 -3.75 C 3.992188 -3.75 3.789062 -3.898438 3.65625 -4.203125 C 3.5625 -4.390625 3.453125 -4.523438 3.328125 -4.609375 C 3.203125 -4.691406 3.03125 -4.734375 2.8125 -4.734375 C 2.351562 -4.734375 1.992188 -4.550781 1.734375 -4.1875 C 1.484375 -3.820312 1.359375 -3.335938 1.359375 -2.734375 C 1.359375 -2.023438 1.53125 -1.441406 1.875 -0.984375 C 2.226562 -0.535156 2.757812 -0.3125 3.46875 -0.3125 C 3.945312 -0.3125 4.367188 -0.445312 4.734375 -0.71875 L 4.75 -0.71875 C 4.78125 -0.71875 4.804688 -0.703125 4.828125 -0.671875 C 4.847656 -0.648438 4.84375 -0.632812 4.8125 -0.625 C 4.519531 -0.351562 4.222656 -0.15625 3.921875 -0.03125 C 3.617188 0.09375 3.285156 0.15625 2.921875 0.15625 Z M 2.921875 0.15625 "/></g></g></g><g fill="#f0ead6" fill-opacity="1"><g transform="translate(105.734645, 12.211793)"><g><path d="M 4.59375 -0.734375 C 4.625 -0.734375 4.648438 -0.71875 4.671875 -0.6875 C 4.691406 -0.65625 4.691406 -0.628906 4.671875 -0.609375 C 4.109375 -0.0976562 3.488281 0.15625 2.8125 0.15625 C 2.3125 0.15625 1.882812 0.046875 1.53125 -0.171875 C 1.175781 -0.398438 0.90625 -0.703125 0.71875 -1.078125 C 0.53125 -1.453125 0.4375 -1.851562 0.4375 -2.28125 C 0.4375 -2.78125 0.554688 -3.234375 0.796875 -3.640625 C 1.035156 -4.054688 1.363281 -4.382812 1.78125 -4.625 C 2.195312 -4.875 2.648438 -5 3.140625 -5 C 3.628906 -5 4.003906 -4.875 4.265625 -4.625 C 4.523438 -4.375 4.65625 -4.015625 4.65625 -3.546875 C 4.65625 -3.316406 4.601562 -3.203125 4.5 -3.203125 L 1.375 -3.203125 C 1.363281 -3.015625 1.359375 -2.867188 1.359375 -2.765625 C 1.359375 -2.035156 1.53125 -1.445312 1.875 -1 C 2.21875 -0.550781 2.707031 -0.328125 3.34375 -0.328125 C 3.59375 -0.328125 3.800781 -0.359375 3.96875 -0.421875 C 4.144531 -0.484375 4.351562 -0.585938 4.59375 -0.734375 Z M 2.71875 -4.734375 C 2.363281 -4.734375 2.070312 -4.613281 1.84375 -4.375 C 1.613281 -4.132812 1.46875 -3.800781 1.40625 -3.375 L 3.703125 -3.421875 C 3.703125 -3.847656 3.613281 -4.171875 3.4375 -4.390625 C 3.269531 -4.617188 3.03125 -4.734375 2.71875 -4.734375 Z M 2.71875 -4.734375 "/></g></g></g><g fill="#f0ead6" fill-opacity="1"><g transform="translate(110.901011, 12.211793)"><g><path d="M 1.3125 -4.140625 C 1.3125 -3.859375 1.40625 -3.628906 1.59375 -3.453125 C 1.78125 -3.273438 2.054688 -3.085938 2.421875 -2.890625 C 2.722656 -2.742188 2.957031 -2.613281 3.125 -2.5 C 3.289062 -2.394531 3.429688 -2.25 3.546875 -2.0625 C 3.671875 -1.882812 3.734375 -1.671875 3.734375 -1.421875 C 3.734375 -0.984375 3.570312 -0.613281 3.25 -0.3125 C 2.925781 -0.0078125 2.484375 0.140625 1.921875 0.140625 C 1.703125 0.140625 1.492188 0.109375 1.296875 0.046875 C 1.097656 -0.00390625 0.894531 -0.0976562 0.6875 -0.234375 C 0.644531 -0.273438 0.625 -0.328125 0.625 -0.390625 L 0.59375 -1.421875 C 0.59375 -1.441406 0.613281 -1.453125 0.65625 -1.453125 C 0.707031 -1.460938 0.738281 -1.453125 0.75 -1.421875 C 0.894531 -1.003906 1.101562 -0.675781 1.375 -0.4375 C 1.644531 -0.207031 1.945312 -0.09375 2.28125 -0.09375 C 2.53125 -0.09375 2.722656 -0.148438 2.859375 -0.265625 C 2.992188 -0.390625 3.0625 -0.570312 3.0625 -0.8125 C 3.0625 -1.144531 2.960938 -1.398438 2.765625 -1.578125 C 2.578125 -1.765625 2.296875 -1.957031 1.921875 -2.15625 C 1.628906 -2.289062 1.40625 -2.410156 1.25 -2.515625 C 1.09375 -2.628906 0.957031 -2.773438 0.84375 -2.953125 C 0.726562 -3.128906 0.671875 -3.347656 0.671875 -3.609375 C 0.671875 -4.078125 0.835938 -4.429688 1.171875 -4.671875 C 1.515625 -4.910156 1.929688 -5.03125 2.421875 -5.03125 C 2.753906 -5.03125 3.066406 -4.96875 3.359375 -4.84375 C 3.429688 -4.8125 3.46875 -4.765625 3.46875 -4.703125 C 3.46875 -4.523438 3.46875 -4.382812 3.46875 -4.28125 L 3.453125 -3.734375 C 3.453125 -3.722656 3.425781 -3.71875 3.375 -3.71875 C 3.320312 -3.71875 3.296875 -3.722656 3.296875 -3.734375 C 3.296875 -4.003906 3.15625 -4.242188 2.875 -4.453125 C 2.59375 -4.671875 2.289062 -4.78125 1.96875 -4.78125 C 1.769531 -4.78125 1.609375 -4.726562 1.484375 -4.625 C 1.367188 -4.519531 1.3125 -4.359375 1.3125 -4.140625 Z M 1.3125 -4.140625 "/></g></g></g></g></g></svg>