<svg xmlns="http://www.w3.org/2000/svg" xmlns:xlink="http://www.w3.org/1999/xlink" width="400" zoomAndPan="magnify" viewBox="0 0 300 74.999997" height="100" preserveAspectRatio="xMidYMid meet" version="1.0"><defs><g/><clipPath id="2ed68161b9"><path d="M 26.535156 13.789062 L 66.285156 13.789062 L 66.285156 61.039062 L 26.535156 61.039062 Z M 26.535156 13.789062 " clip-rule="nonzero"/></clipPath><clipPath id="6d920e1fe1"><path d="M 194 17 L 207.839844 17 L 207.839844 39 L 194 39 Z M 194 17 " clip-rule="nonzero"/></clipPath><clipPath id="87f2eed24b"><rect x="0" width="208" y="0" height="40"/></clipPath><clipPath id="f83262c106"><rect x="0" width="184" y="0" height="26"/></clipPath></defs><path fill="#f0ead6" d="M 36.816406 49.351562 L 38.398438 49.351562 C 38.832031 49.351562 39.1875 48.996094 39.1875 48.5625 C 39.1875 48.125 38.832031 47.769531 38.398438 47.769531 L 36.816406 47.769531 C 36.382812 47.769531 36.027344 48.125 36.027344 48.5625 C 36.027344 48.996094 36.382812 49.351562 36.816406 49.351562 " fill-opacity="1" fill-rule="nonzero"/><path fill="#f0ead6" d="M 60.523438 47.769531 L 41.558594 47.769531 C 41.125 47.769531 40.769531 48.125 40.769531 48.5625 C 40.769531 48.996094 41.125 49.351562 41.558594 49.351562 L 60.523438 49.351562 C 60.960938 49.351562 61.3125 48.996094 61.3125 48.5625 C 61.3125 48.125 60.960938 47.769531 60.523438 47.769531 " fill-opacity="1" fill-rule="nonzero"/><path fill="#f0ead6" d="M 36.816406 44.609375 L 38.398438 44.609375 C 38.832031 44.609375 39.1875 44.253906 39.1875 43.820312 C 39.1875 43.382812 38.832031 43.027344 38.398438 43.027344 L 36.816406 43.027344 C 36.382812 43.027344 36.027344 43.382812 36.027344 43.820312 C 36.027344 44.253906 36.382812 44.609375 36.816406 44.609375 " fill-opacity="1" fill-rule="nonzero"/><path fill="#f0ead6" d="M 60.523438 43.027344 L 41.558594 43.027344 C 41.125 43.027344 40.769531 43.382812 40.769531 43.820312 C 40.769531 44.253906 41.125 44.609375 41.558594 44.609375 L 60.523438 44.609375 C 60.960938 44.609375 61.3125 44.253906 61.3125 43.820312 C 61.3125 43.382812 60.960938 43.027344 60.523438 43.027344 " fill-opacity="1" fill-rule="nonzero"/><path fill="#f0ead6" d="M 36.816406 39.867188 L 38.398438 39.867188 C 38.832031 39.867188 39.1875 39.511719 39.1875 39.078125 C 39.1875 38.644531 38.832031 38.289062 38.398438 38.289062 L 36.816406 38.289062 C 36.382812 38.289062 36.027344 38.644531 36.027344 39.078125 C 36.027344 39.511719 36.382812 39.867188 36.816406 39.867188 " fill-opacity="1" fill-rule="nonzero"/><path fill="#f0ead6" d="M 60.523438 38.289062 L 41.558594 38.289062 C 41.125 38.289062 40.769531 38.644531 40.769531 39.078125 C 40.769531 39.511719 41.125 39.867188 41.558594 39.867188 L 60.523438 39.867188 C 60.960938 39.867188 61.3125 39.511719 61.3125 39.078125 C 61.3125 38.644531 60.960938 38.289062 60.523438 38.289062 " fill-opacity="1" fill-rule="nonzero"/><path fill="#f0ead6" d="M 36.816406 35.125 L 38.398438 35.125 C 38.832031 35.125 39.1875 34.773438 39.1875 34.335938 C 39.1875 33.902344 38.832031 33.546875 38.398438 33.546875 L 36.816406 33.546875 C 36.382812 33.546875 36.027344 33.902344 36.027344 34.335938 C 36.027344 34.773438 36.382812 35.125 36.816406 35.125 " fill-opacity="1" fill-rule="nonzero"/><path fill="#f0ead6" d="M 60.523438 33.546875 L 41.558594 33.546875 C 41.125 33.546875 40.769531 33.902344 40.769531 34.335938 C 40.769531 34.773438 41.125 35.125 41.558594 35.125 L 60.523438 35.125 C 60.960938 35.125 61.3125 34.773438 61.3125 34.335938 C 61.3125 33.902344 60.960938 33.546875 60.523438 33.546875 " fill-opacity="1" fill-rule="nonzero"/><path fill="#f0ead6" d="M 36.816406 30.386719 L 38.398438 30.386719 C 38.832031 30.386719 39.1875 30.03125 39.1875 29.59375 C 39.1875 29.160156 38.832031 28.804688 38.398438 28.804688 L 36.816406 28.804688 C 36.382812 28.804688 36.027344 29.160156 36.027344 29.59375 C 36.027344 30.03125 36.382812 30.386719 36.816406 30.386719 " fill-opacity="1" fill-rule="nonzero"/><path fill="#f0ead6" d="M 40.769531 29.59375 C 40.769531 30.03125 41.125 30.386719 41.558594 30.386719 L 60.523438 30.386719 C 60.960938 30.386719 61.3125 30.03125 61.3125 29.59375 C 61.3125 29.160156 60.960938 28.804688 60.523438 28.804688 L 41.558594 28.804688 C 41.125 28.804688 40.769531 29.160156 40.769531 29.59375 " fill-opacity="1" fill-rule="nonzero"/><g clip-path="url(#2ed68161b9)"><path fill="#f0ead6" d="M 28.125 18.53125 L 31.285156 18.53125 L 31.285156 55.671875 C 31.285156 56.109375 31.640625 56.464844 32.074219 56.464844 L 59.734375 56.464844 L 59.734375 59.625 L 28.125 59.625 Z M 32.867188 15.371094 L 53.410156 15.371094 L 53.410156 25.644531 C 53.410156 26.078125 53.765625 26.433594 54.203125 26.433594 L 64.476562 26.433594 L 64.476562 54.882812 L 32.867188 54.882812 Z M 63.359375 24.855469 L 54.992188 24.855469 L 54.992188 16.488281 Z M 27.335938 61.203125 L 60.523438 61.203125 C 60.960938 61.203125 61.3125 60.851562 61.3125 60.414062 L 61.3125 56.464844 L 65.265625 56.464844 C 65.699219 56.464844 66.054688 56.109375 66.054688 55.671875 L 66.054688 25.644531 C 66.054688 25.625 66.046875 25.609375 66.046875 25.59375 C 66.039062 25.523438 66.027344 25.457031 66.007812 25.390625 C 65.996094 25.367188 65.992188 25.339844 65.980469 25.316406 C 65.941406 25.234375 65.890625 25.152344 65.824219 25.085938 L 54.761719 14.023438 C 54.691406 13.953125 54.613281 13.90625 54.53125 13.867188 C 54.503906 13.855469 54.480469 13.847656 54.457031 13.839844 C 54.386719 13.816406 54.324219 13.804688 54.25 13.800781 C 54.234375 13.800781 54.21875 13.789062 54.203125 13.789062 L 32.074219 13.789062 C 31.640625 13.789062 31.285156 14.144531 31.285156 14.582031 L 31.285156 16.953125 L 27.335938 16.953125 C 26.898438 16.953125 26.542969 17.304688 26.542969 17.742188 L 26.542969 60.414062 C 26.542969 60.851562 26.898438 61.203125 27.335938 61.203125 " fill-opacity="1" fill-rule="nonzero"/></g><path fill="#f0ead6" d="M 37.605469 22.484375 L 40.769531 22.484375 L 40.769531 25.644531 L 37.605469 25.644531 Z M 36.816406 27.222656 L 41.558594 27.222656 C 41.992188 27.222656 42.347656 26.871094 42.347656 26.433594 L 42.347656 21.691406 C 42.347656 21.257812 41.992188 20.902344 41.558594 20.902344 L 36.816406 20.902344 C 36.382812 20.902344 36.027344 21.257812 36.027344 21.691406 L 36.027344 26.433594 C 36.027344 26.871094 36.382812 27.222656 36.816406 27.222656 " fill-opacity="1" fill-rule="nonzero"/><g transform="matrix(1, 0, 0, 1, 72, 6)"><g clip-path="url(#87f2eed24b)"><g fill="#f0ead6" fill-opacity="1"><g transform="translate(0.698616, 30.062314)"><g><path d="M 22.4375 -0.375 C 22.539062 -0.375 22.59375 -0.3125 22.59375 -0.1875 C 22.59375 -0.0625 22.539062 0 22.4375 0 C 22.03125 0 21.382812 -0.0195312 20.5 -0.0625 C 19.625 -0.101562 18.984375 -0.125 18.578125 -0.125 C 18.054688 -0.125 17.4375 -0.101562 16.71875 -0.0625 C 16 -0.0195312 15.441406 0 15.046875 0 C 14.960938 0 14.921875 -0.0625 14.921875 -0.1875 C 14.921875 -0.3125 14.960938 -0.375 15.046875 -0.375 C 15.660156 -0.375 16.109375 -0.441406 16.390625 -0.578125 C 16.671875 -0.710938 16.8125 -0.941406 16.8125 -1.265625 C 16.8125 -1.578125 16.632812 -2.113281 16.28125 -2.875 L 13.875 -7.734375 L 6.25 -7.734375 L 4.734375 -4.328125 C 4.460938 -3.691406 4.328125 -3.125 4.328125 -2.625 C 4.328125 -1.882812 4.585938 -1.320312 5.109375 -0.9375 C 5.640625 -0.5625 6.375 -0.375 7.3125 -0.375 C 7.425781 -0.375 7.484375 -0.3125 7.484375 -0.1875 C 7.484375 -0.0625 7.425781 0 7.3125 0 C 6.9375 0 6.390625 -0.0195312 5.671875 -0.0625 C 4.878906 -0.101562 4.1875 -0.125 3.59375 -0.125 C 3.03125 -0.125 2.367188 -0.101562 1.609375 -0.0625 C 0.929688 -0.0195312 0.375 0 -0.0625 0 C -0.164062 0 -0.21875 -0.0625 -0.21875 -0.1875 C -0.21875 -0.3125 -0.164062 -0.375 -0.0625 -0.375 C 0.519531 -0.375 1.007812 -0.488281 1.40625 -0.71875 C 1.8125 -0.957031 2.203125 -1.375 2.578125 -1.96875 C 2.960938 -2.570312 3.414062 -3.460938 3.9375 -4.640625 L 10.71875 -19.90625 C 10.757812 -19.96875 10.859375 -20 11.015625 -20 C 11.160156 -20 11.242188 -19.96875 11.265625 -19.90625 L 18.984375 -4.328125 C 19.722656 -2.804688 20.335938 -1.765625 20.828125 -1.203125 C 21.328125 -0.648438 21.863281 -0.375 22.4375 -0.375 Z M 6.59375 -8.515625 L 13.5 -8.515625 L 9.875 -15.875 Z M 6.59375 -8.515625 "/></g></g></g><g fill="#f0ead6" fill-opacity="1"><g transform="translate(23.12255, 30.062314)"><g><path d="M 5.171875 -16.375 C 5.171875 -15.59375 5.363281 -14.898438 5.75 -14.296875 C 6.144531 -13.703125 6.628906 -13.179688 7.203125 -12.734375 C 7.785156 -12.296875 8.570312 -11.773438 9.5625 -11.171875 C 10.632812 -10.492188 11.476562 -9.910156 12.09375 -9.421875 C 12.71875 -8.941406 13.242188 -8.347656 13.671875 -7.640625 C 14.109375 -6.941406 14.328125 -6.117188 14.328125 -5.171875 C 14.328125 -4.097656 14.046875 -3.140625 13.484375 -2.296875 C 12.929688 -1.460938 12.144531 -0.804688 11.125 -0.328125 C 10.101562 0.140625 8.941406 0.375 7.640625 0.375 C 6.753906 0.375 5.84375 0.257812 4.90625 0.03125 C 3.96875 -0.195312 3.257812 -0.476562 2.78125 -0.8125 C 2.59375 -0.945312 2.484375 -1.148438 2.453125 -1.421875 L 2.265625 -6.21875 L 2.265625 -6.25 C 2.265625 -6.332031 2.316406 -6.378906 2.421875 -6.390625 C 2.535156 -6.398438 2.601562 -6.363281 2.625 -6.28125 C 3.3125 -4.53125 4.101562 -3.097656 5 -1.984375 C 5.894531 -0.867188 7.035156 -0.3125 8.421875 -0.3125 C 9.328125 -0.3125 10.082031 -0.554688 10.6875 -1.046875 C 11.300781 -1.546875 11.609375 -2.375 11.609375 -3.53125 C 11.609375 -4.457031 11.398438 -5.265625 10.984375 -5.953125 C 10.578125 -6.648438 10.070312 -7.226562 9.46875 -7.6875 C 8.875 -8.15625 8.0625 -8.726562 7.03125 -9.40625 C 6.019531 -10.050781 5.226562 -10.597656 4.65625 -11.046875 C 4.09375 -11.503906 3.613281 -12.0625 3.21875 -12.71875 C 2.820312 -13.382812 2.625 -14.160156 2.625 -15.046875 C 2.625 -16.140625 2.925781 -17.0625 3.53125 -17.8125 C 4.144531 -18.570312 4.9375 -19.132812 5.90625 -19.5 C 6.882812 -19.875 7.910156 -20.0625 8.984375 -20.0625 C 9.703125 -20.0625 10.414062 -19.992188 11.125 -19.859375 C 11.84375 -19.722656 12.445312 -19.550781 12.9375 -19.34375 C 13.25 -19.21875 13.40625 -19.015625 13.40625 -18.734375 L 13.5 -14.453125 C 13.5 -14.390625 13.441406 -14.347656 13.328125 -14.328125 C 13.210938 -14.304688 13.144531 -14.328125 13.125 -14.390625 C 12.707031 -15.671875 12.144531 -16.832031 11.4375 -17.875 C 10.726562 -18.914062 9.671875 -19.4375 8.265625 -19.4375 C 7.316406 -19.4375 6.5625 -19.160156 6 -18.609375 C 5.445312 -18.066406 5.171875 -17.320312 5.171875 -16.375 Z M 5.171875 -16.375 "/></g></g></g><g fill="#f0ead6" fill-opacity="1"><g transform="translate(39.112615, 30.062314)"><g><path d="M 22.625 -19.71875 C 22.664062 -19.71875 22.6875 -19.65625 22.6875 -19.53125 C 22.6875 -19.40625 22.664062 -19.34375 22.625 -19.34375 C 21.78125 -19.34375 21.125 -19.039062 20.65625 -18.4375 C 20.195312 -17.84375 19.96875 -16.988281 19.96875 -15.875 L 19.96875 0.4375 C 19.96875 0.5 19.914062 0.539062 19.8125 0.5625 C 19.707031 0.582031 19.632812 0.570312 19.59375 0.53125 L 4.796875 -16.65625 L 4.796875 -3.8125 C 4.796875 -2.695312 5.015625 -1.84375 5.453125 -1.25 C 5.898438 -0.664062 6.539062 -0.375 7.375 -0.375 C 7.414062 -0.375 7.4375 -0.3125 7.4375 -0.1875 C 7.4375 -0.0625 7.414062 0 7.375 0 C 6.8125 0 6.382812 -0.0078125 6.09375 -0.03125 L 4.421875 -0.0625 L 2.5625 -0.03125 C 2.21875 -0.0078125 1.734375 0 1.109375 0 C 1.046875 0 1.015625 -0.0625 1.015625 -0.1875 C 1.015625 -0.3125 1.046875 -0.375 1.109375 -0.375 C 2.003906 -0.375 2.695312 -0.664062 3.1875 -1.25 C 3.6875 -1.84375 3.9375 -2.695312 3.9375 -3.8125 L 3.9375 -17.640625 C 3.351562 -18.265625 2.820312 -18.703125 2.34375 -18.953125 C 1.875 -19.210938 1.390625 -19.34375 0.890625 -19.34375 C 0.835938 -19.34375 0.8125 -19.40625 0.8125 -19.53125 C 0.8125 -19.65625 0.835938 -19.71875 0.890625 -19.71875 L 2.140625 -19.6875 C 2.421875 -19.664062 2.8125 -19.65625 3.3125 -19.65625 L 5.328125 -19.6875 C 5.578125 -19.707031 5.882812 -19.71875 6.25 -19.71875 C 6.414062 -19.71875 6.539062 -19.675781 6.625 -19.59375 C 6.707031 -19.507812 6.832031 -19.335938 7 -19.078125 L 7.765625 -18.078125 L 19.125 -4.703125 L 19.125 -15.875 C 19.125 -16.988281 18.898438 -17.84375 18.453125 -18.4375 C 18.015625 -19.039062 17.382812 -19.34375 16.5625 -19.34375 C 16.519531 -19.34375 16.5 -19.40625 16.5 -19.53125 C 16.5 -19.65625 16.519531 -19.71875 16.5625 -19.71875 L 17.859375 -19.6875 C 18.523438 -19.644531 19.082031 -19.625 19.53125 -19.625 C 19.945312 -19.625 20.515625 -19.644531 21.234375 -19.6875 Z M 22.625 -19.71875 "/></g></g></g><g fill="#f0ead6" fill-opacity="1"><g transform="translate(62.198859, 30.062314)"><g/></g></g><g fill="#f0ead6" fill-opacity="1"><g transform="translate(69.57889, 30.062314)"><g><path d="M 13.3125 -20.0625 C 15.644531 -20.0625 17.523438 -19.734375 18.953125 -19.078125 C 19.128906 -18.992188 19.238281 -18.914062 19.28125 -18.84375 C 19.320312 -18.769531 19.363281 -18.609375 19.40625 -18.359375 L 19.78125 -14.203125 C 19.78125 -14.128906 19.726562 -14.082031 19.625 -14.0625 C 19.519531 -14.039062 19.445312 -14.078125 19.40625 -14.171875 C 18.851562 -15.890625 18.035156 -17.203125 16.953125 -18.109375 C 15.867188 -19.015625 14.53125 -19.46875 12.9375 -19.46875 C 11.394531 -19.46875 10.019531 -19.082031 8.8125 -18.3125 C 7.601562 -17.539062 6.660156 -16.4375 5.984375 -15 C 5.316406 -13.5625 4.984375 -11.882812 4.984375 -9.96875 C 4.984375 -8.070312 5.335938 -6.382812 6.046875 -4.90625 C 6.765625 -3.425781 7.742188 -2.273438 8.984375 -1.453125 C 10.234375 -0.628906 11.632812 -0.21875 13.1875 -0.21875 C 14.71875 -0.21875 15.992188 -0.625 17.015625 -1.4375 C 18.035156 -2.25 18.9375 -3.535156 19.71875 -5.296875 C 19.738281 -5.359375 19.800781 -5.378906 19.90625 -5.359375 C 20.007812 -5.335938 20.0625 -5.304688 20.0625 -5.265625 L 19.65625 -1.484375 C 19.632812 -1.234375 19.597656 -1.078125 19.546875 -1.015625 C 19.492188 -0.953125 19.382812 -0.875 19.21875 -0.78125 C 17.320312 -0.0078125 15.3125 0.375 13.1875 0.375 C 10.9375 0.375 8.925781 -0.046875 7.15625 -0.890625 C 5.394531 -1.742188 4.019531 -2.941406 3.03125 -4.484375 C 2.039062 -6.035156 1.546875 -7.8125 1.546875 -9.8125 C 1.546875 -11.789062 2.0625 -13.554688 3.09375 -15.109375 C 4.125 -16.671875 5.53125 -17.882812 7.3125 -18.75 C 9.101562 -19.625 11.101562 -20.0625 13.3125 -20.0625 Z M 13.3125 -20.0625 "/></g></g></g><g fill="#f0ead6" fill-opacity="1"><g transform="translate(91.119747, 30.062314)"><g><path d="M 7.40625 0.40625 C 6.144531 0.40625 5.03125 0.109375 4.0625 -0.484375 C 3.101562 -1.085938 2.359375 -1.898438 1.828125 -2.921875 C 1.304688 -3.941406 1.046875 -5.050781 1.046875 -6.25 C 1.046875 -7.613281 1.382812 -8.773438 2.0625 -9.734375 C 2.75 -10.691406 3.625 -11.40625 4.6875 -11.875 C 5.75 -12.351562 6.835938 -12.59375 7.953125 -12.59375 C 9.234375 -12.59375 10.351562 -12.285156 11.3125 -11.671875 C 12.269531 -11.054688 13 -10.25 13.5 -9.25 C 14.007812 -8.257812 14.265625 -7.195312 14.265625 -6.0625 C 14.265625 -4.800781 13.953125 -3.675781 13.328125 -2.6875 C 12.703125 -1.695312 11.863281 -0.929688 10.8125 -0.390625 C 9.769531 0.140625 8.632812 0.40625 7.40625 0.40625 Z M 8.359375 -0.21875 C 9.285156 -0.21875 9.992188 -0.628906 10.484375 -1.453125 C 10.984375 -2.273438 11.234375 -3.472656 11.234375 -5.046875 C 11.234375 -6.453125 11.035156 -7.679688 10.640625 -8.734375 C 10.253906 -9.785156 9.726562 -10.582031 9.0625 -11.125 C 8.40625 -11.675781 7.6875 -11.953125 6.90625 -11.953125 C 5.957031 -11.953125 5.238281 -11.5625 4.75 -10.78125 C 4.269531 -10.007812 4.03125 -8.863281 4.03125 -7.34375 C 4.03125 -5.976562 4.210938 -4.753906 4.578125 -3.671875 C 4.953125 -2.585938 5.46875 -1.738281 6.125 -1.125 C 6.789062 -0.519531 7.535156 -0.21875 8.359375 -0.21875 Z M 8.359375 -0.21875 "/></g></g></g><g fill="#f0ead6" fill-opacity="1"><g transform="translate(106.447494, 30.062314)"><g><path d="M 15.90625 -0.375 C 15.96875 -0.375 16 -0.3125 16 -0.1875 C 16 -0.0625 15.96875 0 15.90625 0 C 15.375 0 14.960938 -0.0078125 14.671875 -0.03125 L 12.84375 -0.0625 L 11.046875 -0.03125 C 10.722656 -0.0078125 10.300781 0 9.78125 0 C 9.71875 0 9.6875 -0.0625 9.6875 -0.1875 C 9.6875 -0.3125 9.71875 -0.375 9.78125 -0.375 C 10.5 -0.375 10.972656 -0.519531 11.203125 -0.8125 C 11.429688 -1.113281 11.546875 -1.695312 11.546875 -2.5625 L 11.546875 -7.28125 C 11.546875 -8.457031 11.328125 -9.320312 10.890625 -9.875 C 10.460938 -10.4375 9.785156 -10.71875 8.859375 -10.71875 C 8.316406 -10.71875 7.757812 -10.59375 7.1875 -10.34375 C 6.625 -10.09375 6.109375 -9.757812 5.640625 -9.34375 L 5.640625 -2.5625 C 5.640625 -1.695312 5.753906 -1.113281 5.984375 -0.8125 C 6.222656 -0.519531 6.695312 -0.375 7.40625 -0.375 C 7.476562 -0.375 7.515625 -0.3125 7.515625 -0.1875 C 7.515625 -0.0625 7.476562 0 7.40625 0 C 6.882812 0 6.476562 -0.0078125 6.1875 -0.03125 L 4.359375 -0.0625 L 2.53125 -0.03125 C 2.226562 -0.0078125 1.816406 0 1.296875 0 C 1.234375 0 1.203125 -0.0625 1.203125 -0.1875 C 1.203125 -0.3125 1.234375 -0.375 1.296875 -0.375 C 2.003906 -0.375 2.472656 -0.519531 2.703125 -0.8125 C 2.941406 -1.113281 3.0625 -1.695312 3.0625 -2.5625 L 3.0625 -8.578125 C 3.0625 -9.253906 2.984375 -9.75 2.828125 -10.0625 C 2.671875 -10.375 2.410156 -10.53125 2.046875 -10.53125 C 1.734375 -10.53125 1.207031 -10.375 0.46875 -10.0625 L 0.4375 -10.0625 C 0.351562 -10.0625 0.289062 -10.113281 0.25 -10.21875 C 0.207031 -10.320312 0.21875 -10.382812 0.28125 -10.40625 L 4.421875 -12.421875 C 4.546875 -12.472656 4.617188 -12.5 4.640625 -12.5 C 4.847656 -12.5 5.0625 -12.257812 5.28125 -11.78125 C 5.5 -11.3125 5.617188 -10.695312 5.640625 -9.9375 C 7.117188 -11.6875 8.71875 -12.5625 10.4375 -12.5625 C 11.59375 -12.5625 12.5 -12.207031 13.15625 -11.5 C 13.8125 -10.789062 14.140625 -9.835938 14.140625 -8.640625 L 14.140625 -2.5625 C 14.140625 -1.695312 14.253906 -1.113281 14.484375 -0.8125 C 14.710938 -0.519531 15.1875 -0.375 15.90625 -0.375 Z M 15.90625 -0.375 "/></g></g></g><g fill="#f0ead6" fill-opacity="1"><g transform="translate(122.942174, 30.062314)"><g><path d="M 3.53125 -10.53125 C 3.53125 -9.882812 3.753906 -9.335938 4.203125 -8.890625 C 4.660156 -8.453125 5.320312 -7.992188 6.1875 -7.515625 C 6.9375 -7.085938 7.515625 -6.738281 7.921875 -6.46875 C 8.335938 -6.195312 8.695312 -5.828125 9 -5.359375 C 9.3125 -4.898438 9.46875 -4.34375 9.46875 -3.6875 C 9.46875 -2.976562 9.285156 -2.316406 8.921875 -1.703125 C 8.566406 -1.085938 8.035156 -0.59375 7.328125 -0.21875 C 6.628906 0.15625 5.796875 0.34375 4.828125 0.34375 C 3.671875 0.34375 2.609375 0.0507812 1.640625 -0.53125 C 1.515625 -0.65625 1.453125 -0.785156 1.453125 -0.921875 L 1.390625 -3.8125 C 1.390625 -3.875 1.445312 -3.910156 1.5625 -3.921875 C 1.675781 -3.929688 1.742188 -3.914062 1.765625 -3.875 C 2.117188 -2.820312 2.660156 -1.957031 3.390625 -1.28125 C 4.117188 -0.613281 4.890625 -0.28125 5.703125 -0.28125 C 6.234375 -0.28125 6.644531 -0.414062 6.9375 -0.6875 C 7.226562 -0.96875 7.375 -1.378906 7.375 -1.921875 C 7.375 -2.722656 7.144531 -3.359375 6.6875 -3.828125 C 6.226562 -4.304688 5.554688 -4.773438 4.671875 -5.234375 C 3.953125 -5.609375 3.390625 -5.925781 2.984375 -6.1875 C 2.585938 -6.457031 2.25 -6.816406 1.96875 -7.265625 C 1.6875 -7.722656 1.546875 -8.285156 1.546875 -8.953125 C 1.546875 -10.148438 1.984375 -11.046875 2.859375 -11.640625 C 3.734375 -12.234375 4.789062 -12.53125 6.03125 -12.53125 C 6.84375 -12.53125 7.679688 -12.367188 8.546875 -12.046875 C 8.734375 -11.960938 8.828125 -11.847656 8.828125 -11.703125 C 8.828125 -11.222656 8.816406 -10.84375 8.796875 -10.5625 L 8.765625 -9.046875 C 8.765625 -8.984375 8.703125 -8.953125 8.578125 -8.953125 C 8.453125 -8.953125 8.390625 -8.984375 8.390625 -9.046875 C 8.390625 -9.472656 8.21875 -9.910156 7.875 -10.359375 C 7.539062 -10.816406 7.109375 -11.191406 6.578125 -11.484375 C 6.054688 -11.773438 5.523438 -11.921875 4.984375 -11.921875 C 4.015625 -11.921875 3.53125 -11.457031 3.53125 -10.53125 Z M 3.53125 -10.53125 "/></g></g></g><g fill="#f0ead6" fill-opacity="1"><g transform="translate(133.570681, 30.062314)"><g><path d="M 15.609375 -1.984375 C 15.671875 -1.984375 15.722656 -1.929688 15.765625 -1.828125 C 15.816406 -1.722656 15.804688 -1.648438 15.734375 -1.609375 L 11.609375 0.375 L 11.484375 0.40625 C 11.273438 0.40625 11.082031 0.171875 10.90625 -0.296875 C 10.738281 -0.773438 10.644531 -1.410156 10.625 -2.203125 C 9.15625 -0.503906 7.601562 0.34375 5.96875 0.34375 C 4.832031 0.34375 3.945312 -0.00390625 3.3125 -0.703125 C 2.675781 -1.410156 2.359375 -2.375 2.359375 -3.59375 L 2.359375 -8.296875 C 2.359375 -9.722656 2.035156 -10.4375 1.390625 -10.4375 C 1.179688 -10.4375 0.882812 -10.351562 0.5 -10.1875 L 0.46875 -10.1875 C 0.382812 -10.1875 0.320312 -10.238281 0.28125 -10.34375 C 0.238281 -10.445312 0.25 -10.519531 0.3125 -10.5625 L 4.328125 -12.421875 L 4.453125 -12.46875 C 4.535156 -12.46875 4.628906 -12.421875 4.734375 -12.328125 C 4.835938 -12.242188 4.890625 -12.171875 4.890625 -12.109375 L 4.890625 -4.953125 C 4.890625 -3.773438 5.101562 -2.894531 5.53125 -2.3125 C 5.96875 -1.738281 6.628906 -1.453125 7.515625 -1.453125 C 8.035156 -1.453125 8.570312 -1.578125 9.125 -1.828125 C 9.6875 -2.078125 10.1875 -2.425781 10.625 -2.875 L 10.625 -8.296875 C 10.625 -9.035156 10.546875 -9.578125 10.390625 -9.921875 C 10.234375 -10.265625 9.988281 -10.4375 9.65625 -10.4375 C 9.46875 -10.4375 9.171875 -10.351562 8.765625 -10.1875 L 8.734375 -10.1875 C 8.648438 -10.1875 8.585938 -10.242188 8.546875 -10.359375 C 8.503906 -10.472656 8.523438 -10.539062 8.609375 -10.5625 L 12.59375 -12.421875 C 12.632812 -12.453125 12.6875 -12.46875 12.75 -12.46875 C 12.832031 -12.46875 12.925781 -12.421875 13.03125 -12.328125 C 13.132812 -12.242188 13.1875 -12.171875 13.1875 -12.109375 L 13.1875 -3.5625 C 13.1875 -2.820312 13.257812 -2.304688 13.40625 -2.015625 C 13.550781 -1.722656 13.796875 -1.578125 14.140625 -1.578125 C 14.390625 -1.578125 14.859375 -1.703125 15.546875 -1.953125 Z M 15.609375 -1.984375 "/></g></g></g><g fill="#f0ead6" fill-opacity="1"><g transform="translate(149.371513, 30.062314)"><g><path d="M 1.171875 0 C 1.109375 0 1.078125 -0.0625 1.078125 -0.1875 C 1.078125 -0.3125 1.109375 -0.375 1.171875 -0.375 C 1.859375 -0.375 2.328125 -0.523438 2.578125 -0.828125 C 2.835938 -1.140625 2.96875 -1.71875 2.96875 -2.5625 L 2.96875 -18.671875 C 2.96875 -19.410156 2.898438 -19.941406 2.765625 -20.265625 C 2.628906 -20.597656 2.378906 -20.765625 2.015625 -20.765625 C 1.703125 -20.765625 1.28125 -20.632812 0.75 -20.375 L 0.71875 -20.375 C 0.632812 -20.375 0.570312 -20.425781 0.53125 -20.53125 C 0.488281 -20.632812 0.488281 -20.710938 0.53125 -20.765625 L 4.984375 -22.84375 L 5.109375 -22.875 C 5.191406 -22.875 5.289062 -22.832031 5.40625 -22.75 C 5.519531 -22.664062 5.578125 -22.59375 5.578125 -22.53125 L 5.578125 -2.5625 C 5.578125 -1.695312 5.691406 -1.113281 5.921875 -0.8125 C 6.160156 -0.519531 6.632812 -0.375 7.34375 -0.375 C 7.40625 -0.375 7.4375 -0.3125 7.4375 -0.1875 C 7.4375 -0.0625 7.40625 0 7.34375 0 C 6.84375 0 6.4375 -0.0078125 6.125 -0.03125 L 4.265625 -0.0625 L 2.421875 -0.03125 C 2.109375 -0.0078125 1.691406 0 1.171875 0 Z M 1.171875 0 "/></g></g></g><g fill="#f0ead6" fill-opacity="1"><g transform="translate(157.729235, 30.062314)"><g><path d="M 10.09375 -2.015625 C 10.15625 -2.015625 10.210938 -1.972656 10.265625 -1.890625 C 10.316406 -1.804688 10.3125 -1.742188 10.25 -1.703125 C 9.46875 -0.960938 8.726562 -0.429688 8.03125 -0.109375 C 7.34375 0.210938 6.613281 0.375 5.84375 0.375 C 4.9375 0.375 4.171875 0.160156 3.546875 -0.265625 C 2.929688 -0.703125 2.625 -1.421875 2.625 -2.421875 L 2.625 -9.5625 C 2.625 -10.25 2.507812 -10.707031 2.28125 -10.9375 C 2.0625 -11.175781 1.640625 -11.296875 1.015625 -11.296875 C 0.992188 -11.296875 0.96875 -11.320312 0.9375 -11.375 C 0.90625 -11.425781 0.890625 -11.484375 0.890625 -11.546875 C 0.890625 -11.609375 0.90625 -11.664062 0.9375 -11.71875 C 0.96875 -11.769531 0.992188 -11.796875 1.015625 -11.796875 C 2.984375 -11.878906 4.222656 -12.734375 4.734375 -14.359375 C 4.773438 -14.441406 4.863281 -14.484375 5 -14.484375 C 5.132812 -14.484375 5.203125 -14.441406 5.203125 -14.359375 L 5.203125 -11.859375 C 6.191406 -11.878906 7.59375 -11.984375 9.40625 -12.171875 C 9.445312 -12.171875 9.492188 -12.09375 9.546875 -11.9375 C 9.597656 -11.78125 9.625 -11.609375 9.625 -11.421875 C 9.625 -11.234375 9.585938 -11.039062 9.515625 -10.84375 C 9.441406 -10.65625 9.363281 -10.570312 9.28125 -10.59375 C 8.101562 -10.875 6.742188 -11.046875 5.203125 -11.109375 L 5.203125 -3.46875 C 5.203125 -2.644531 5.40625 -2.039062 5.8125 -1.65625 C 6.226562 -1.269531 6.804688 -1.078125 7.546875 -1.078125 C 8.421875 -1.078125 9.25 -1.378906 10.03125 -1.984375 Z M 10.09375 -2.015625 "/></g></g></g><g fill="#f0ead6" fill-opacity="1"><g transform="translate(168.357742, 30.062314)"><g><path d="M 4.296875 -15.8125 C 3.742188 -15.8125 3.316406 -15.957031 3.015625 -16.25 C 2.710938 -16.539062 2.5625 -16.960938 2.5625 -17.515625 C 2.5625 -18.035156 2.710938 -18.4375 3.015625 -18.71875 C 3.316406 -19.007812 3.742188 -19.15625 4.296875 -19.15625 C 4.816406 -19.15625 5.222656 -19.007812 5.515625 -18.71875 C 5.816406 -18.4375 5.96875 -18.035156 5.96875 -17.515625 C 5.96875 -16.960938 5.820312 -16.539062 5.53125 -16.25 C 5.25 -15.957031 4.835938 -15.8125 4.296875 -15.8125 Z M 1.390625 0 C 1.328125 0 1.296875 -0.0625 1.296875 -0.1875 C 1.296875 -0.3125 1.328125 -0.375 1.390625 -0.375 C 2.097656 -0.375 2.566406 -0.519531 2.796875 -0.8125 C 3.035156 -1.113281 3.15625 -1.695312 3.15625 -2.5625 L 3.15625 -8.296875 C 3.15625 -9.015625 3.082031 -9.535156 2.9375 -9.859375 C 2.789062 -10.179688 2.535156 -10.34375 2.171875 -10.34375 C 1.859375 -10.34375 1.453125 -10.21875 0.953125 -9.96875 L 0.921875 -9.96875 C 0.828125 -9.96875 0.757812 -10.019531 0.71875 -10.125 C 0.675781 -10.226562 0.6875 -10.300781 0.75 -10.34375 L 5.296875 -12.46875 L 5.390625 -12.5 C 5.472656 -12.5 5.5625 -12.445312 5.65625 -12.34375 C 5.75 -12.25 5.796875 -12.171875 5.796875 -12.109375 L 5.796875 -11.453125 C 5.753906 -10.566406 5.734375 -9.523438 5.734375 -8.328125 L 5.734375 -2.5625 C 5.734375 -1.695312 5.851562 -1.113281 6.09375 -0.8125 C 6.34375 -0.519531 6.828125 -0.375 7.546875 -0.375 C 7.609375 -0.375 7.640625 -0.3125 7.640625 -0.1875 C 7.640625 -0.0625 7.609375 0 7.546875 0 C 7.015625 0 6.59375 -0.0078125 6.28125 -0.03125 L 4.453125 -0.0625 L 2.625 -0.03125 C 2.320312 -0.0078125 1.910156 0 1.390625 0 Z M 1.390625 0 "/></g></g></g><g fill="#f0ead6" fill-opacity="1"><g transform="translate(176.74701, 30.062314)"><g><path d="M 15.90625 -0.375 C 15.96875 -0.375 16 -0.3125 16 -0.1875 C 16 -0.0625 15.96875 0 15.90625 0 C 15.375 0 14.960938 -0.0078125 14.671875 -0.03125 L 12.84375 -0.0625 L 11.046875 -0.03125 C 10.722656 -0.0078125 10.300781 0 9.78125 0 C 9.71875 0 9.6875 -0.0625 9.6875 -0.1875 C 9.6875 -0.3125 9.71875 -0.375 9.78125 -0.375 C 10.5 -0.375 10.972656 -0.519531 11.203125 -0.8125 C 11.429688 -1.113281 11.546875 -1.695312 11.546875 -2.5625 L 11.546875 -7.28125 C 11.546875 -8.457031 11.328125 -9.320312 10.890625 -9.875 C 10.460938 -10.4375 9.785156 -10.71875 8.859375 -10.71875 C 8.316406 -10.71875 7.757812 -10.59375 7.1875 -10.34375 C 6.625 -10.09375 6.109375 -9.757812 5.640625 -9.34375 L 5.640625 -2.5625 C 5.640625 -1.695312 5.753906 -1.113281 5.984375 -0.8125 C 6.222656 -0.519531 6.695312 -0.375 7.40625 -0.375 C 7.476562 -0.375 7.515625 -0.3125 7.515625 -0.1875 C 7.515625 -0.0625 7.476562 0 7.40625 0 C 6.882812 0 6.476562 -0.0078125 6.1875 -0.03125 L 4.359375 -0.0625 L 2.53125 -0.03125 C 2.226562 -0.0078125 1.816406 0 1.296875 0 C 1.234375 0 1.203125 -0.0625 1.203125 -0.1875 C 1.203125 -0.3125 1.234375 -0.375 1.296875 -0.375 C 2.003906 -0.375 2.472656 -0.519531 2.703125 -0.8125 C 2.941406 -1.113281 3.0625 -1.695312 3.0625 -2.5625 L 3.0625 -8.578125 C 3.0625 -9.253906 2.984375 -9.75 2.828125 -10.0625 C 2.671875 -10.375 2.410156 -10.53125 2.046875 -10.53125 C 1.734375 -10.53125 1.207031 -10.375 0.46875 -10.0625 L 0.4375 -10.0625 C 0.351562 -10.0625 0.289062 -10.113281 0.25 -10.21875 C 0.207031 -10.320312 0.21875 -10.382812 0.28125 -10.40625 L 4.421875 -12.421875 C 4.546875 -12.472656 4.617188 -12.5 4.640625 -12.5 C 4.847656 -12.5 5.0625 -12.257812 5.28125 -11.78125 C 5.5 -11.3125 5.617188 -10.695312 5.640625 -9.9375 C 7.117188 -11.6875 8.71875 -12.5625 10.4375 -12.5625 C 11.59375 -12.5625 12.5 -12.207031 13.15625 -11.5 C 13.8125 -10.789062 14.140625 -9.835938 14.140625 -8.640625 L 14.140625 -2.5625 C 14.140625 -1.695312 14.253906 -1.113281 14.484375 -0.8125 C 14.710938 -0.519531 15.1875 -0.375 15.90625 -0.375 Z M 15.90625 -0.375 "/></g></g></g><g clip-path="url(#6d920e1fe1)"><g fill="#f0ead6" fill-opacity="1"><g transform="translate(193.24169, 30.062314)"><g><path d="M 7.921875 -1.109375 C 9.117188 -1.085938 10.09375 -1.019531 10.84375 -0.90625 C 11.601562 -0.800781 12.257812 -0.507812 12.8125 -0.03125 C 13.375 0.445312 13.65625 1.203125 13.65625 2.234375 C 13.65625 3.390625 13.285156 4.476562 12.546875 5.5 C 11.816406 6.519531 10.84375 7.332031 9.625 7.9375 C 8.40625 8.550781 7.097656 8.859375 5.703125 8.859375 C 4.253906 8.859375 3.082031 8.53125 2.1875 7.875 C 1.300781 7.226562 0.859375 6.378906 0.859375 5.328125 C 0.859375 3.835938 1.925781 2.378906 4.0625 0.953125 C 2.507812 0.648438 1.734375 -0.0976562 1.734375 -1.296875 C 1.734375 -1.941406 1.914062 -2.535156 2.28125 -3.078125 C 2.65625 -3.628906 3.21875 -4.171875 3.96875 -4.703125 C 3.195312 -5.054688 2.59375 -5.566406 2.15625 -6.234375 C 1.726562 -6.910156 1.515625 -7.628906 1.515625 -8.390625 C 1.515625 -9.210938 1.765625 -9.925781 2.265625 -10.53125 C 2.773438 -11.144531 3.429688 -11.609375 4.234375 -11.921875 C 5.046875 -12.234375 5.914062 -12.390625 6.84375 -12.390625 C 8.1875 -12.390625 9.300781 -12.054688 10.1875 -11.390625 C 10.757812 -11.742188 11.316406 -12.007812 11.859375 -12.1875 C 12.410156 -12.375 13 -12.46875 13.625 -12.46875 C 13.769531 -12.46875 13.84375 -12.191406 13.84375 -11.640625 C 13.84375 -11.347656 13.804688 -11.039062 13.734375 -10.71875 C 13.660156 -10.40625 13.582031 -10.28125 13.5 -10.34375 C 12.613281 -10.6875 11.859375 -10.859375 11.234375 -10.859375 C 11.046875 -10.859375 10.910156 -10.847656 10.828125 -10.828125 C 11.429688 -10.148438 11.734375 -9.347656 11.734375 -8.421875 C 11.734375 -7.617188 11.476562 -6.890625 10.96875 -6.234375 C 10.46875 -5.585938 9.804688 -5.085938 8.984375 -4.734375 C 8.171875 -4.378906 7.300781 -4.203125 6.375 -4.203125 C 5.675781 -4.203125 5.046875 -4.296875 4.484375 -4.484375 C 4.015625 -4.035156 3.78125 -3.507812 3.78125 -2.90625 C 3.78125 -2.144531 4.085938 -1.660156 4.703125 -1.453125 C 5.328125 -1.242188 6.398438 -1.128906 7.921875 -1.109375 Z M 5.90625 -11.828125 C 4.769531 -11.828125 4.203125 -10.976562 4.203125 -9.28125 C 4.203125 -8.394531 4.34375 -7.601562 4.625 -6.90625 C 4.90625 -6.21875 5.269531 -5.679688 5.71875 -5.296875 C 6.175781 -4.921875 6.644531 -4.734375 7.125 -4.734375 C 7.675781 -4.734375 8.128906 -4.96875 8.484375 -5.4375 C 8.835938 -5.914062 9.015625 -6.640625 9.015625 -7.609375 C 9.015625 -8.484375 8.863281 -9.242188 8.5625 -9.890625 C 8.257812 -10.535156 7.867188 -11.019531 7.390625 -11.34375 C 6.921875 -11.664062 6.425781 -11.828125 5.90625 -11.828125 Z M 7.40625 7.890625 C 8.613281 7.890625 9.578125 7.535156 10.296875 6.828125 C 11.023438 6.117188 11.390625 5.164062 11.390625 3.96875 C 11.390625 3.09375 11.191406 2.453125 10.796875 2.046875 C 10.410156 1.648438 9.894531 1.398438 9.25 1.296875 C 8.613281 1.191406 7.707031 1.140625 6.53125 1.140625 C 5.9375 1.140625 5.367188 1.109375 4.828125 1.046875 C 3.835938 1.753906 3.34375 2.695312 3.34375 3.875 C 3.34375 5.132812 3.722656 6.117188 4.484375 6.828125 C 5.253906 7.535156 6.226562 7.890625 7.40625 7.890625 Z M 7.40625 7.890625 "/></g></g></g></g></g></g><g transform="matrix(1, 0, 0, 1, 84, 37)"><g clip-path="url(#f83262c106)"><g fill="#f0ead6" fill-opacity="1"><g transform="translate(0.486352, 19.103465)"><g><path d="M 3.03125 -10.34375 C 3.03125 -9.832031 3.160156 -9.378906 3.421875 -8.984375 C 3.679688 -8.597656 3.992188 -8.269531 4.359375 -8 C 4.722656 -7.726562 5.234375 -7.394531 5.890625 -7 C 6.578125 -6.582031 7.113281 -6.222656 7.5 -5.921875 C 7.894531 -5.628906 8.234375 -5.257812 8.515625 -4.8125 C 8.796875 -4.375 8.9375 -3.847656 8.9375 -3.234375 C 8.9375 -2.578125 8.769531 -1.984375 8.4375 -1.453125 C 8.101562 -0.929688 7.617188 -0.515625 6.984375 -0.203125 C 6.347656 0.0976562 5.597656 0.25 4.734375 0.25 C 3.640625 0.25 2.671875 0.00390625 1.828125 -0.484375 C 1.753906 -0.523438 1.703125 -0.570312 1.671875 -0.625 C 1.648438 -0.675781 1.632812 -0.757812 1.625 -0.875 L 1.390625 -3.703125 C 1.378906 -3.753906 1.410156 -3.785156 1.484375 -3.796875 C 1.554688 -3.816406 1.601562 -3.800781 1.625 -3.75 C 1.894531 -2.75 2.316406 -1.894531 2.890625 -1.1875 C 3.472656 -0.476562 4.242188 -0.125 5.203125 -0.125 C 5.867188 -0.125 6.421875 -0.296875 6.859375 -0.640625 C 7.304688 -0.992188 7.53125 -1.570312 7.53125 -2.375 C 7.53125 -2.976562 7.394531 -3.5 7.125 -3.9375 C 6.851562 -4.375 6.523438 -4.742188 6.140625 -5.046875 C 5.753906 -5.359375 5.234375 -5.707031 4.578125 -6.09375 C 3.910156 -6.507812 3.394531 -6.851562 3.03125 -7.125 C 2.664062 -7.40625 2.351562 -7.757812 2.09375 -8.1875 C 1.84375 -8.613281 1.71875 -9.117188 1.71875 -9.703125 C 1.71875 -10.390625 1.898438 -10.972656 2.265625 -11.453125 C 2.628906 -11.929688 3.109375 -12.285156 3.703125 -12.515625 C 4.296875 -12.753906 4.925781 -12.875 5.59375 -12.875 C 6.425781 -12.875 7.226562 -12.71875 8 -12.40625 C 8.195312 -12.3125 8.296875 -12.191406 8.296875 -12.046875 L 8.421875 -9.625 C 8.421875 -9.5625 8.382812 -9.523438 8.3125 -9.515625 C 8.238281 -9.503906 8.195312 -9.523438 8.1875 -9.578125 C 8.050781 -10.296875 7.742188 -10.972656 7.265625 -11.609375 C 6.796875 -12.242188 6.113281 -12.5625 5.21875 -12.5625 C 4.507812 -12.5625 3.96875 -12.347656 3.59375 -11.921875 C 3.21875 -11.503906 3.03125 -10.976562 3.03125 -10.34375 Z M 3.03125 -10.34375 "/></g></g></g><g fill="#f0ead6" fill-opacity="1"><g transform="translate(10.511542, 19.103465)"><g><path d="M 6.359375 -1.109375 C 6.398438 -1.109375 6.429688 -1.078125 6.453125 -1.015625 C 6.484375 -0.960938 6.476562 -0.921875 6.4375 -0.890625 C 5.9375 -0.484375 5.484375 -0.191406 5.078125 -0.015625 C 4.671875 0.160156 4.238281 0.25 3.78125 0.25 C 3.21875 0.25 2.75 0.117188 2.375 -0.140625 C 2.007812 -0.410156 1.828125 -0.847656 1.828125 -1.453125 L 1.828125 -6.171875 C 1.828125 -6.492188 1.796875 -6.734375 1.734375 -6.890625 C 1.679688 -7.046875 1.582031 -7.148438 1.4375 -7.203125 C 1.300781 -7.265625 1.078125 -7.296875 0.765625 -7.296875 C 0.722656 -7.296875 0.703125 -7.34375 0.703125 -7.4375 C 0.703125 -7.53125 0.722656 -7.578125 0.765625 -7.578125 C 1.335938 -7.585938 1.800781 -7.726562 2.15625 -8 C 2.507812 -8.269531 2.726562 -8.644531 2.8125 -9.125 C 2.820312 -9.164062 2.875 -9.1875 2.96875 -9.1875 C 3.070312 -9.1875 3.125 -9.164062 3.125 -9.125 L 3.125 -7.59375 C 3.769531 -7.601562 4.691406 -7.671875 5.890625 -7.796875 C 5.929688 -7.796875 5.960938 -7.75 5.984375 -7.65625 C 6.015625 -7.5625 6.03125 -7.453125 6.03125 -7.328125 C 6.03125 -7.203125 6.007812 -7.082031 5.96875 -6.96875 C 5.925781 -6.851562 5.878906 -6.804688 5.828125 -6.828125 C 5.078125 -7.003906 4.175781 -7.101562 3.125 -7.125 L 3.125 -2.140625 C 3.125 -1.066406 3.648438 -0.53125 4.703125 -0.53125 C 5.265625 -0.53125 5.800781 -0.71875 6.3125 -1.09375 Z M 6.359375 -1.109375 "/></g></g></g><g fill="#f0ead6" fill-opacity="1"><g transform="translate(17.357027, 19.103465)"><g><path d="M 8.421875 -1.09375 C 8.472656 -1.09375 8.503906 -1.0625 8.515625 -1 C 8.535156 -0.9375 8.519531 -0.894531 8.46875 -0.875 L 6.375 0.125 C 6.320312 0.144531 6.265625 0.15625 6.203125 0.15625 C 6.023438 0.15625 5.863281 0.0390625 5.71875 -0.1875 C 5.582031 -0.425781 5.484375 -0.75 5.421875 -1.15625 L 4.421875 -0.484375 C 4.085938 -0.253906 3.789062 -0.09375 3.53125 0 C 3.269531 0.09375 2.988281 0.140625 2.6875 0.140625 C 2.175781 0.140625 1.78125 0.0078125 1.5 -0.25 C 1.21875 -0.507812 1.078125 -0.84375 1.078125 -1.25 C 1.078125 -1.6875 1.25 -2.050781 1.59375 -2.34375 C 1.9375 -2.632812 2.484375 -2.921875 3.234375 -3.203125 L 5.40625 -3.984375 L 5.40625 -5.328125 C 5.40625 -6.140625 5.300781 -6.726562 5.09375 -7.09375 C 4.882812 -7.457031 4.578125 -7.640625 4.171875 -7.640625 C 3.722656 -7.640625 3.382812 -7.484375 3.15625 -7.171875 C 2.925781 -6.859375 2.78125 -6.503906 2.71875 -6.109375 C 2.632812 -5.515625 2.359375 -5.21875 1.890625 -5.21875 C 1.640625 -5.21875 1.453125 -5.28125 1.328125 -5.40625 C 1.210938 -5.53125 1.15625 -5.679688 1.15625 -5.859375 C 1.15625 -6.191406 1.367188 -6.523438 1.796875 -6.859375 C 2.222656 -7.203125 2.734375 -7.476562 3.328125 -7.6875 C 3.929688 -7.90625 4.460938 -8.015625 4.921875 -8.015625 C 5.472656 -8.015625 5.898438 -7.835938 6.203125 -7.484375 C 6.503906 -7.128906 6.65625 -6.613281 6.65625 -5.9375 L 6.65625 -2.1875 C 6.65625 -1.726562 6.71875 -1.390625 6.84375 -1.171875 C 6.976562 -0.953125 7.179688 -0.84375 7.453125 -0.84375 C 7.691406 -0.84375 8.003906 -0.925781 8.390625 -1.09375 Z M 5.40625 -1.453125 L 5.40625 -3.703125 L 3.703125 -3.015625 C 3.335938 -2.878906 3.0625 -2.710938 2.875 -2.515625 C 2.6875 -2.328125 2.59375 -2.082031 2.59375 -1.78125 C 2.59375 -1.457031 2.695312 -1.191406 2.90625 -0.984375 C 3.113281 -0.773438 3.378906 -0.671875 3.703125 -0.671875 C 3.972656 -0.671875 4.273438 -0.769531 4.609375 -0.96875 Z M 5.40625 -1.453125 "/></g></g></g><g fill="#f0ead6" fill-opacity="1"><g transform="translate(25.863249, 19.103465)"><g><path d="M 6.359375 -1.109375 C 6.398438 -1.109375 6.429688 -1.078125 6.453125 -1.015625 C 6.484375 -0.960938 6.476562 -0.921875 6.4375 -0.890625 C 5.9375 -0.484375 5.484375 -0.191406 5.078125 -0.015625 C 4.671875 0.160156 4.238281 0.25 3.78125 0.25 C 3.21875 0.25 2.75 0.117188 2.375 -0.140625 C 2.007812 -0.410156 1.828125 -0.847656 1.828125 -1.453125 L 1.828125 -6.171875 C 1.828125 -6.492188 1.796875 -6.734375 1.734375 -6.890625 C 1.679688 -7.046875 1.582031 -7.148438 1.4375 -7.203125 C 1.300781 -7.265625 1.078125 -7.296875 0.765625 -7.296875 C 0.722656 -7.296875 0.703125 -7.34375 0.703125 -7.4375 C 0.703125 -7.53125 0.722656 -7.578125 0.765625 -7.578125 C 1.335938 -7.585938 1.800781 -7.726562 2.15625 -8 C 2.507812 -8.269531 2.726562 -8.644531 2.8125 -9.125 C 2.820312 -9.164062 2.875 -9.1875 2.96875 -9.1875 C 3.070312 -9.1875 3.125 -9.164062 3.125 -9.125 L 3.125 -7.59375 C 3.769531 -7.601562 4.691406 -7.671875 5.890625 -7.796875 C 5.929688 -7.796875 5.960938 -7.75 5.984375 -7.65625 C 6.015625 -7.5625 6.03125 -7.453125 6.03125 -7.328125 C 6.03125 -7.203125 6.007812 -7.082031 5.96875 -6.96875 C 5.925781 -6.851562 5.878906 -6.804688 5.828125 -6.828125 C 5.078125 -7.003906 4.175781 -7.101562 3.125 -7.125 L 3.125 -2.140625 C 3.125 -1.066406 3.648438 -0.53125 4.703125 -0.53125 C 5.265625 -0.53125 5.800781 -0.71875 6.3125 -1.09375 Z M 6.359375 -1.109375 "/></g></g></g><g fill="#f0ead6" fill-opacity="1"><g transform="translate(32.708734, 19.103465)"><g><path d="M 7.375 -1.171875 C 7.414062 -1.171875 7.453125 -1.144531 7.484375 -1.09375 C 7.515625 -1.050781 7.519531 -1.007812 7.5 -0.96875 C 6.59375 -0.15625 5.59375 0.25 4.5 0.25 C 3.695312 0.25 3.007812 0.0703125 2.4375 -0.28125 C 1.875 -0.644531 1.441406 -1.125 1.140625 -1.71875 C 0.847656 -2.320312 0.703125 -2.972656 0.703125 -3.671875 C 0.703125 -4.460938 0.894531 -5.1875 1.28125 -5.84375 C 1.664062 -6.507812 2.1875 -7.035156 2.84375 -7.421875 C 3.507812 -7.804688 4.242188 -8 5.046875 -8 C 5.828125 -8 6.421875 -7.796875 6.828125 -7.390625 C 7.242188 -6.992188 7.453125 -6.425781 7.453125 -5.6875 C 7.453125 -5.320312 7.367188 -5.140625 7.203125 -5.140625 L 2.203125 -5.125 C 2.179688 -4.820312 2.171875 -4.59375 2.171875 -4.4375 C 2.171875 -3.257812 2.445312 -2.3125 3 -1.59375 C 3.550781 -0.882812 4.332031 -0.53125 5.34375 -0.53125 C 5.75 -0.53125 6.085938 -0.578125 6.359375 -0.671875 C 6.640625 -0.773438 6.96875 -0.941406 7.34375 -1.171875 Z M 4.359375 -7.59375 C 3.785156 -7.59375 3.316406 -7.398438 2.953125 -7.015625 C 2.585938 -6.628906 2.351562 -6.09375 2.25 -5.40625 L 5.9375 -5.484375 C 5.9375 -6.171875 5.796875 -6.691406 5.515625 -7.046875 C 5.242188 -7.410156 4.859375 -7.59375 4.359375 -7.59375 Z M 4.359375 -7.59375 "/></g></g></g><g fill="#f0ead6" fill-opacity="1"><g transform="translate(40.992173, 19.103465)"><g/></g></g><g fill="#f0ead6" fill-opacity="1"><g transform="translate(45.731354, 19.103465)"><g><path d="M 14.3125 -12.65625 C 14.351562 -12.65625 14.375 -12.613281 14.375 -12.53125 C 14.375 -12.445312 14.351562 -12.40625 14.3125 -12.40625 C 13.757812 -12.40625 13.351562 -12.238281 13.09375 -11.90625 C 12.832031 -11.582031 12.703125 -11.070312 12.703125 -10.375 L 12.703125 0.25 C 12.703125 0.28125 12.664062 0.300781 12.59375 0.3125 C 12.53125 0.332031 12.484375 0.328125 12.453125 0.296875 L 3.015625 -11 L 2.953125 -11.078125 L 2.953125 -2.265625 C 2.953125 -1.566406 3.078125 -1.054688 3.328125 -0.734375 C 3.585938 -0.410156 3.988281 -0.25 4.53125 -0.25 C 4.570312 -0.25 4.59375 -0.207031 4.59375 -0.125 C 4.59375 -0.0390625 4.570312 0 4.53125 0 C 4.207031 0 3.953125 -0.00390625 3.765625 -0.015625 L 2.734375 -0.046875 L 1.65625 -0.015625 C 1.457031 -0.00390625 1.171875 0 0.796875 0 C 0.765625 0 0.75 -0.0390625 0.75 -0.125 C 0.75 -0.207031 0.765625 -0.25 0.796875 -0.25 C 1.367188 -0.25 1.785156 -0.410156 2.046875 -0.734375 C 2.316406 -1.054688 2.453125 -1.566406 2.453125 -2.265625 L 2.453125 -11.609375 C 1.898438 -12.140625 1.335938 -12.40625 0.765625 -12.40625 C 0.722656 -12.40625 0.703125 -12.445312 0.703125 -12.53125 C 0.703125 -12.613281 0.722656 -12.65625 0.765625 -12.65625 L 1.515625 -12.640625 C 1.679688 -12.617188 1.910156 -12.609375 2.203125 -12.609375 L 3.15625 -12.640625 C 3.269531 -12.648438 3.410156 -12.65625 3.578125 -12.65625 C 3.691406 -12.65625 3.769531 -12.628906 3.8125 -12.578125 C 3.863281 -12.535156 3.941406 -12.429688 4.046875 -12.265625 C 4.210938 -12.023438 4.375 -11.804688 4.53125 -11.609375 L 12.1875 -2.328125 L 12.1875 -10.375 C 12.1875 -11.070312 12.066406 -11.582031 11.828125 -11.90625 C 11.585938 -12.238281 11.1875 -12.40625 10.625 -12.40625 C 10.601562 -12.40625 10.59375 -12.445312 10.59375 -12.53125 C 10.59375 -12.613281 10.601562 -12.65625 10.625 -12.65625 L 11.421875 -12.640625 C 11.847656 -12.609375 12.191406 -12.59375 12.453125 -12.59375 C 12.710938 -12.59375 13.054688 -12.609375 13.484375 -12.640625 Z M 14.3125 -12.65625 "/></g></g></g><g fill="#f0ead6" fill-opacity="1"><g transform="translate(60.475478, 19.103465)"><g><path d="M 8.421875 -1.09375 C 8.472656 -1.09375 8.503906 -1.0625 8.515625 -1 C 8.535156 -0.9375 8.519531 -0.894531 8.46875 -0.875 L 6.375 0.125 C 6.320312 0.144531 6.265625 0.15625 6.203125 0.15625 C 6.023438 0.15625 5.863281 0.0390625 5.71875 -0.1875 C 5.582031 -0.425781 5.484375 -0.75 5.421875 -1.15625 L 4.421875 -0.484375 C 4.085938 -0.253906 3.789062 -0.09375 3.53125 0 C 3.269531 0.09375 2.988281 0.140625 2.6875 0.140625 C 2.175781 0.140625 1.78125 0.0078125 1.5 -0.25 C 1.21875 -0.507812 1.078125 -0.84375 1.078125 -1.25 C 1.078125 -1.6875 1.25 -2.050781 1.59375 -2.34375 C 1.9375 -2.632812 2.484375 -2.921875 3.234375 -3.203125 L 5.40625 -3.984375 L 5.40625 -5.328125 C 5.40625 -6.140625 5.300781 -6.726562 5.09375 -7.09375 C 4.882812 -7.457031 4.578125 -7.640625 4.171875 -7.640625 C 3.722656 -7.640625 3.382812 -7.484375 3.15625 -7.171875 C 2.925781 -6.859375 2.78125 -6.503906 2.71875 -6.109375 C 2.632812 -5.515625 2.359375 -5.21875 1.890625 -5.21875 C 1.640625 -5.21875 1.453125 -5.28125 1.328125 -5.40625 C 1.210938 -5.53125 1.15625 -5.679688 1.15625 -5.859375 C 1.15625 -6.191406 1.367188 -6.523438 1.796875 -6.859375 C 2.222656 -7.203125 2.734375 -7.476562 3.328125 -7.6875 C 3.929688 -7.90625 4.460938 -8.015625 4.921875 -8.015625 C 5.472656 -8.015625 5.898438 -7.835938 6.203125 -7.484375 C 6.503906 -7.128906 6.65625 -6.613281 6.65625 -5.9375 L 6.65625 -2.1875 C 6.65625 -1.726562 6.71875 -1.390625 6.84375 -1.171875 C 6.976562 -0.953125 7.179688 -0.84375 7.453125 -0.84375 C 7.691406 -0.84375 8.003906 -0.925781 8.390625 -1.09375 Z M 5.40625 -1.453125 L 5.40625 -3.703125 L 3.703125 -3.015625 C 3.335938 -2.878906 3.0625 -2.710938 2.875 -2.515625 C 2.6875 -2.328125 2.59375 -2.082031 2.59375 -1.78125 C 2.59375 -1.457031 2.695312 -1.191406 2.90625 -0.984375 C 3.113281 -0.773438 3.378906 -0.671875 3.703125 -0.671875 C 3.972656 -0.671875 4.273438 -0.769531 4.609375 -0.96875 Z M 5.40625 -1.453125 "/></g></g></g><g fill="#f0ead6" fill-opacity="1"><g transform="translate(68.981696, 19.103465)"><g><path d="M 6.359375 -1.109375 C 6.398438 -1.109375 6.429688 -1.078125 6.453125 -1.015625 C 6.484375 -0.960938 6.476562 -0.921875 6.4375 -0.890625 C 5.9375 -0.484375 5.484375 -0.191406 5.078125 -0.015625 C 4.671875 0.160156 4.238281 0.25 3.78125 0.25 C 3.21875 0.25 2.75 0.117188 2.375 -0.140625 C 2.007812 -0.410156 1.828125 -0.847656 1.828125 -1.453125 L 1.828125 -6.171875 C 1.828125 -6.492188 1.796875 -6.734375 1.734375 -6.890625 C 1.679688 -7.046875 1.582031 -7.148438 1.4375 -7.203125 C 1.300781 -7.265625 1.078125 -7.296875 0.765625 -7.296875 C 0.722656 -7.296875 0.703125 -7.34375 0.703125 -7.4375 C 0.703125 -7.53125 0.722656 -7.578125 0.765625 -7.578125 C 1.335938 -7.585938 1.800781 -7.726562 2.15625 -8 C 2.507812 -8.269531 2.726562 -8.644531 2.8125 -9.125 C 2.820312 -9.164062 2.875 -9.1875 2.96875 -9.1875 C 3.070312 -9.1875 3.125 -9.164062 3.125 -9.125 L 3.125 -7.59375 C 3.769531 -7.601562 4.691406 -7.671875 5.890625 -7.796875 C 5.929688 -7.796875 5.960938 -7.75 5.984375 -7.65625 C 6.015625 -7.5625 6.03125 -7.453125 6.03125 -7.328125 C 6.03125 -7.203125 6.007812 -7.082031 5.96875 -6.96875 C 5.925781 -6.851562 5.878906 -6.804688 5.828125 -6.828125 C 5.078125 -7.003906 4.175781 -7.101562 3.125 -7.125 L 3.125 -2.140625 C 3.125 -1.066406 3.648438 -0.53125 4.703125 -0.53125 C 5.265625 -0.53125 5.800781 -0.71875 6.3125 -1.09375 Z M 6.359375 -1.109375 "/></g></g></g><g fill="#f0ead6" fill-opacity="1"><g transform="translate(75.827184, 19.103465)"><g><path d="M 2.78125 -10.3125 C 2.476562 -10.3125 2.242188 -10.390625 2.078125 -10.546875 C 1.910156 -10.710938 1.828125 -10.941406 1.828125 -11.234375 C 1.828125 -11.503906 1.910156 -11.71875 2.078125 -11.875 C 2.242188 -12.039062 2.476562 -12.125 2.78125 -12.125 C 3.0625 -12.125 3.28125 -12.039062 3.4375 -11.875 C 3.601562 -11.71875 3.6875 -11.503906 3.6875 -11.234375 C 3.6875 -10.941406 3.601562 -10.710938 3.4375 -10.546875 C 3.28125 -10.390625 3.0625 -10.3125 2.78125 -10.3125 Z M 1.03125 0 C 0.988281 0 0.96875 -0.0390625 0.96875 -0.125 C 0.96875 -0.207031 0.988281 -0.25 1.03125 -0.25 C 1.53125 -0.25 1.859375 -0.335938 2.015625 -0.515625 C 2.179688 -0.703125 2.265625 -1.078125 2.265625 -1.640625 L 2.265625 -5.40625 C 2.265625 -5.875 2.21875 -6.21875 2.125 -6.4375 C 2.03125 -6.65625 1.863281 -6.765625 1.625 -6.765625 C 1.394531 -6.765625 1.097656 -6.671875 0.734375 -6.484375 L 0.703125 -6.484375 C 0.648438 -6.484375 0.609375 -6.515625 0.578125 -6.578125 C 0.554688 -6.648438 0.570312 -6.695312 0.625 -6.71875 L 3.328125 -7.984375 L 3.40625 -8 C 3.445312 -8 3.488281 -7.976562 3.53125 -7.9375 C 3.582031 -7.894531 3.609375 -7.851562 3.609375 -7.8125 C 3.609375 -7.71875 3.597656 -7.445312 3.578125 -7 C 3.566406 -6.5625 3.5625 -6.035156 3.5625 -5.421875 L 3.5625 -1.640625 C 3.5625 -1.242188 3.59375 -0.945312 3.65625 -0.75 C 3.71875 -0.5625 3.832031 -0.429688 4 -0.359375 C 4.175781 -0.285156 4.441406 -0.25 4.796875 -0.25 C 4.835938 -0.25 4.859375 -0.207031 4.859375 -0.125 C 4.859375 -0.0390625 4.835938 0 4.796875 0 C 4.460938 0 4.203125 -0.00390625 4.015625 -0.015625 L 2.921875 -0.046875 L 1.78125 -0.015625 C 1.59375 -0.00390625 1.34375 0 1.03125 0 Z M 1.03125 0 "/></g></g></g><g fill="#f0ead6" fill-opacity="1"><g transform="translate(81.315716, 19.103465)"><g><path d="M 4.703125 0.265625 C 3.898438 0.265625 3.195312 0.0703125 2.59375 -0.3125 C 2 -0.695312 1.535156 -1.21875 1.203125 -1.875 C 0.867188 -2.53125 0.703125 -3.242188 0.703125 -4.015625 C 0.703125 -4.890625 0.914062 -5.632812 1.34375 -6.25 C 1.78125 -6.863281 2.332031 -7.320312 3 -7.625 C 3.675781 -7.925781 4.363281 -8.078125 5.0625 -8.078125 C 5.851562 -8.078125 6.550781 -7.878906 7.15625 -7.484375 C 7.757812 -7.097656 8.222656 -6.582031 8.546875 -5.9375 C 8.867188 -5.300781 9.03125 -4.625 9.03125 -3.90625 C 9.03125 -3.070312 8.832031 -2.335938 8.4375 -1.703125 C 8.050781 -1.078125 7.523438 -0.59375 6.859375 -0.25 C 6.203125 0.09375 5.484375 0.265625 4.703125 0.265625 Z M 5.28125 -0.125 C 5.988281 -0.125 6.535156 -0.382812 6.921875 -0.90625 C 7.304688 -1.4375 7.5 -2.242188 7.5 -3.328125 C 7.5 -4.171875 7.363281 -4.921875 7.09375 -5.578125 C 6.820312 -6.242188 6.445312 -6.757812 5.96875 -7.125 C 5.5 -7.488281 4.972656 -7.671875 4.390625 -7.671875 C 3.703125 -7.671875 3.171875 -7.414062 2.796875 -6.90625 C 2.421875 -6.394531 2.234375 -5.644531 2.234375 -4.65625 C 2.234375 -3.820312 2.363281 -3.054688 2.625 -2.359375 C 2.882812 -1.660156 3.242188 -1.113281 3.703125 -0.71875 C 4.160156 -0.320312 4.6875 -0.125 5.28125 -0.125 Z M 5.28125 -0.125 "/></g></g></g><g fill="#f0ead6" fill-opacity="1"><g transform="translate(91.05737, 19.103465)"><g><path d="M 10.078125 -0.25 C 10.117188 -0.25 10.140625 -0.207031 10.140625 -0.125 C 10.140625 -0.0390625 10.117188 0 10.078125 0 C 9.742188 0 9.484375 -0.00390625 9.296875 -0.015625 L 8.203125 -0.046875 L 7.109375 -0.015625 C 6.921875 -0.00390625 6.664062 0 6.34375 0 C 6.300781 0 6.28125 -0.0390625 6.28125 -0.125 C 6.28125 -0.207031 6.300781 -0.25 6.34375 -0.25 C 6.6875 -0.25 6.941406 -0.285156 7.109375 -0.359375 C 7.285156 -0.429688 7.398438 -0.5625 7.453125 -0.75 C 7.515625 -0.945312 7.546875 -1.242188 7.546875 -1.640625 L 7.546875 -4.859375 C 7.546875 -5.640625 7.398438 -6.210938 7.109375 -6.578125 C 6.828125 -6.953125 6.367188 -7.140625 5.734375 -7.140625 C 5.335938 -7.140625 4.929688 -7.039062 4.515625 -6.84375 C 4.109375 -6.644531 3.738281 -6.363281 3.40625 -6 L 3.40625 -1.640625 C 3.40625 -1.242188 3.429688 -0.945312 3.484375 -0.75 C 3.546875 -0.5625 3.664062 -0.429688 3.84375 -0.359375 C 4.019531 -0.285156 4.285156 -0.25 4.640625 -0.25 C 4.679688 -0.25 4.703125 -0.207031 4.703125 -0.125 C 4.703125 -0.0390625 4.679688 0 4.640625 0 C 4.296875 0 4.03125 -0.00390625 3.84375 -0.015625 L 2.75 -0.046875 L 1.65625 -0.015625 C 1.46875 -0.00390625 1.210938 0 0.890625 0 C 0.847656 0 0.828125 -0.0390625 0.828125 -0.125 C 0.828125 -0.207031 0.847656 -0.25 0.890625 -0.25 C 1.242188 -0.25 1.503906 -0.285156 1.671875 -0.359375 C 1.835938 -0.429688 1.953125 -0.5625 2.015625 -0.75 C 2.078125 -0.945312 2.109375 -1.242188 2.109375 -1.640625 L 2.109375 -5.609375 C 2.109375 -6.054688 2.050781 -6.378906 1.9375 -6.578125 C 1.832031 -6.785156 1.660156 -6.890625 1.421875 -6.890625 C 1.210938 -6.890625 0.851562 -6.785156 0.34375 -6.578125 L 0.328125 -6.578125 C 0.273438 -6.578125 0.234375 -6.609375 0.203125 -6.671875 C 0.171875 -6.734375 0.1875 -6.773438 0.25 -6.796875 L 2.671875 -7.984375 L 2.796875 -8 C 2.929688 -8 3.0625 -7.847656 3.1875 -7.546875 C 3.3125 -7.242188 3.382812 -6.84375 3.40625 -6.34375 C 4.382812 -7.5 5.414062 -8.078125 6.5 -8.078125 C 7.238281 -8.078125 7.8125 -7.859375 8.21875 -7.421875 C 8.632812 -6.992188 8.84375 -6.382812 8.84375 -5.59375 L 8.84375 -1.640625 C 8.84375 -1.242188 8.875 -0.945312 8.9375 -0.75 C 9 -0.5625 9.117188 -0.429688 9.296875 -0.359375 C 9.472656 -0.285156 9.734375 -0.25 10.078125 -0.25 Z M 10.078125 -0.25 "/></g></g></g><g fill="#f0ead6" fill-opacity="1"><g transform="translate(101.568632, 19.103465)"><g><path d="M 8.421875 -1.09375 C 8.472656 -1.09375 8.503906 -1.0625 8.515625 -1 C 8.535156 -0.9375 8.519531 -0.894531 8.46875 -0.875 L 6.375 0.125 C 6.320312 0.144531 6.265625 0.15625 6.203125 0.15625 C 6.023438 0.15625 5.863281 0.0390625 5.71875 -0.1875 C 5.582031 -0.425781 5.484375 -0.75 5.421875 -1.15625 L 4.421875 -0.484375 C 4.085938 -0.253906 3.789062 -0.09375 3.53125 0 C 3.269531 0.09375 2.988281 0.140625 2.6875 0.140625 C 2.175781 0.140625 1.78125 0.0078125 1.5 -0.25 C 1.21875 -0.507812 1.078125 -0.84375 1.078125 -1.25 C 1.078125 -1.6875 1.25 -2.050781 1.59375 -2.34375 C 1.9375 -2.632812 2.484375 -2.921875 3.234375 -3.203125 L 5.40625 -3.984375 L 5.40625 -5.328125 C 5.40625 -6.140625 5.300781 -6.726562 5.09375 -7.09375 C 4.882812 -7.457031 4.578125 -7.640625 4.171875 -7.640625 C 3.722656 -7.640625 3.382812 -7.484375 3.15625 -7.171875 C 2.925781 -6.859375 2.78125 -6.503906 2.71875 -6.109375 C 2.632812 -5.515625 2.359375 -5.21875 1.890625 -5.21875 C 1.640625 -5.21875 1.453125 -5.28125 1.328125 -5.40625 C 1.210938 -5.53125 1.15625 -5.679688 1.15625 -5.859375 C 1.15625 -6.191406 1.367188 -6.523438 1.796875 -6.859375 C 2.222656 -7.203125 2.734375 -7.476562 3.328125 -7.6875 C 3.929688 -7.90625 4.460938 -8.015625 4.921875 -8.015625 C 5.472656 -8.015625 5.898438 -7.835938 6.203125 -7.484375 C 6.503906 -7.128906 6.65625 -6.613281 6.65625 -5.9375 L 6.65625 -2.1875 C 6.65625 -1.726562 6.71875 -1.390625 6.84375 -1.171875 C 6.976562 -0.953125 7.179688 -0.84375 7.453125 -0.84375 C 7.691406 -0.84375 8.003906 -0.925781 8.390625 -1.09375 Z M 5.40625 -1.453125 L 5.40625 -3.703125 L 3.703125 -3.015625 C 3.335938 -2.878906 3.0625 -2.710938 2.875 -2.515625 C 2.6875 -2.328125 2.59375 -2.082031 2.59375 -1.78125 C 2.59375 -1.457031 2.695312 -1.191406 2.90625 -0.984375 C 3.113281 -0.773438 3.378906 -0.671875 3.703125 -0.671875 C 3.972656 -0.671875 4.273438 -0.769531 4.609375 -0.96875 Z M 5.40625 -1.453125 "/></g></g></g><g fill="#f0ead6" fill-opacity="1"><g transform="translate(110.074857, 19.103465)"><g><path d="M 0.796875 0 C 0.753906 0 0.734375 -0.0390625 0.734375 -0.125 C 0.734375 -0.207031 0.753906 -0.25 0.796875 -0.25 C 1.285156 -0.25 1.613281 -0.335938 1.78125 -0.515625 C 1.945312 -0.703125 2.03125 -1.078125 2.03125 -1.640625 L 2.03125 -12.0625 C 2.03125 -12.550781 1.984375 -12.90625 1.890625 -13.125 C 1.804688 -13.34375 1.648438 -13.453125 1.421875 -13.453125 C 1.210938 -13.453125 0.90625 -13.351562 0.5 -13.15625 L 0.484375 -13.15625 C 0.429688 -13.15625 0.382812 -13.191406 0.34375 -13.265625 C 0.3125 -13.347656 0.328125 -13.394531 0.390625 -13.40625 L 3.0625 -14.65625 L 3.140625 -14.6875 C 3.179688 -14.6875 3.226562 -14.664062 3.28125 -14.625 C 3.332031 -14.582031 3.359375 -14.539062 3.359375 -14.5 L 3.359375 -1.640625 C 3.359375 -1.078125 3.4375 -0.703125 3.59375 -0.515625 C 3.75 -0.335938 4.082031 -0.25 4.59375 -0.25 C 4.632812 -0.25 4.65625 -0.207031 4.65625 -0.125 C 4.65625 -0.0390625 4.632812 0 4.59375 0 C 4.269531 0 4.007812 -0.00390625 3.8125 -0.015625 L 2.6875 -0.046875 L 1.5625 -0.015625 C 1.375 -0.00390625 1.117188 0 0.796875 0 Z M 0.796875 0 "/></g></g></g><g fill="#f0ead6" fill-opacity="1"><g transform="translate(115.340616, 19.103465)"><g/></g></g><g fill="#f0ead6" fill-opacity="1"><g transform="translate(120.07979, 19.103465)"><g><path d="M 3.03125 -10.34375 C 3.03125 -9.832031 3.160156 -9.378906 3.421875 -8.984375 C 3.679688 -8.597656 3.992188 -8.269531 4.359375 -8 C 4.722656 -7.726562 5.234375 -7.394531 5.890625 -7 C 6.578125 -6.582031 7.113281 -6.222656 7.5 -5.921875 C 7.894531 -5.628906 8.234375 -5.257812 8.515625 -4.8125 C 8.796875 -4.375 8.9375 -3.847656 8.9375 -3.234375 C 8.9375 -2.578125 8.769531 -1.984375 8.4375 -1.453125 C 8.101562 -0.929688 7.617188 -0.515625 6.984375 -0.203125 C 6.347656 0.0976562 5.597656 0.25 4.734375 0.25 C 3.640625 0.25 2.671875 0.00390625 1.828125 -0.484375 C 1.753906 -0.523438 1.703125 -0.570312 1.671875 -0.625 C 1.648438 -0.675781 1.632812 -0.757812 1.625 -0.875 L 1.390625 -3.703125 C 1.378906 -3.753906 1.410156 -3.785156 1.484375 -3.796875 C 1.554688 -3.816406 1.601562 -3.800781 1.625 -3.75 C 1.894531 -2.75 2.316406 -1.894531 2.890625 -1.1875 C 3.472656 -0.476562 4.242188 -0.125 5.203125 -0.125 C 5.867188 -0.125 6.421875 -0.296875 6.859375 -0.640625 C 7.304688 -0.992188 7.53125 -1.570312 7.53125 -2.375 C 7.53125 -2.976562 7.394531 -3.5 7.125 -3.9375 C 6.851562 -4.375 6.523438 -4.742188 6.140625 -5.046875 C 5.753906 -5.359375 5.234375 -5.707031 4.578125 -6.09375 C 3.910156 -6.507812 3.394531 -6.851562 3.03125 -7.125 C 2.664062 -7.40625 2.351562 -7.757812 2.09375 -8.1875 C 1.84375 -8.613281 1.71875 -9.117188 1.71875 -9.703125 C 1.71875 -10.390625 1.898438 -10.972656 2.265625 -11.453125 C 2.628906 -11.929688 3.109375 -12.285156 3.703125 -12.515625 C 4.296875 -12.753906 4.925781 -12.875 5.59375 -12.875 C 6.425781 -12.875 7.226562 -12.71875 8 -12.40625 C 8.195312 -12.3125 8.296875 -12.191406 8.296875 -12.046875 L 8.421875 -9.625 C 8.421875 -9.5625 8.382812 -9.523438 8.3125 -9.515625 C 8.238281 -9.503906 8.195312 -9.523438 8.1875 -9.578125 C 8.050781 -10.296875 7.742188 -10.972656 7.265625 -11.609375 C 6.796875 -12.242188 6.113281 -12.5625 5.21875 -12.5625 C 4.507812 -12.5625 3.96875 -12.347656 3.59375 -11.921875 C 3.21875 -11.503906 3.03125 -10.976562 3.03125 -10.34375 Z M 3.03125 -10.34375 "/></g></g></g><g fill="#f0ead6" fill-opacity="1"><g transform="translate(130.10498, 19.103465)"><g><path d="M 7.375 -1.171875 C 7.414062 -1.171875 7.453125 -1.144531 7.484375 -1.09375 C 7.515625 -1.050781 7.519531 -1.007812 7.5 -0.96875 C 6.59375 -0.15625 5.59375 0.25 4.5 0.25 C 3.695312 0.25 3.007812 0.0703125 2.4375 -0.28125 C 1.875 -0.644531 1.441406 -1.125 1.140625 -1.71875 C 0.847656 -2.320312 0.703125 -2.972656 0.703125 -3.671875 C 0.703125 -4.460938 0.894531 -5.1875 1.28125 -5.84375 C 1.664062 -6.507812 2.1875 -7.035156 2.84375 -7.421875 C 3.507812 -7.804688 4.242188 -8 5.046875 -8 C 5.828125 -8 6.421875 -7.796875 6.828125 -7.390625 C 7.242188 -6.992188 7.453125 -6.425781 7.453125 -5.6875 C 7.453125 -5.320312 7.367188 -5.140625 7.203125 -5.140625 L 2.203125 -5.125 C 2.179688 -4.820312 2.171875 -4.59375 2.171875 -4.4375 C 2.171875 -3.257812 2.445312 -2.3125 3 -1.59375 C 3.550781 -0.882812 4.332031 -0.53125 5.34375 -0.53125 C 5.75 -0.53125 6.085938 -0.578125 6.359375 -0.671875 C 6.640625 -0.773438 6.96875 -0.941406 7.34375 -1.171875 Z M 4.359375 -7.59375 C 3.785156 -7.59375 3.316406 -7.398438 2.953125 -7.015625 C 2.585938 -6.628906 2.351562 -6.09375 2.25 -5.40625 L 5.9375 -5.484375 C 5.9375 -6.171875 5.796875 -6.691406 5.515625 -7.046875 C 5.242188 -7.410156 4.859375 -7.59375 4.359375 -7.59375 Z M 4.359375 -7.59375 "/></g></g></g><g fill="#f0ead6" fill-opacity="1"><g transform="translate(138.388426, 19.103465)"><g><path d="M 5.65625 -8 C 5.945312 -8 6.226562 -7.910156 6.5 -7.734375 C 6.78125 -7.554688 6.921875 -7.347656 6.921875 -7.109375 C 6.921875 -6.921875 6.859375 -6.757812 6.734375 -6.625 C 6.609375 -6.5 6.4375 -6.4375 6.21875 -6.4375 C 6.082031 -6.4375 5.96875 -6.460938 5.875 -6.515625 C 5.78125 -6.566406 5.671875 -6.648438 5.546875 -6.765625 C 5.410156 -6.867188 5.289062 -6.945312 5.1875 -7 C 5.09375 -7.0625 4.96875 -7.09375 4.8125 -7.09375 C 4.644531 -7.09375 4.46875 -7.023438 4.28125 -6.890625 C 4.101562 -6.753906 3.8125 -6.457031 3.40625 -6 L 3.40625 -1.640625 C 3.40625 -1.242188 3.453125 -0.945312 3.546875 -0.75 C 3.648438 -0.5625 3.835938 -0.429688 4.109375 -0.359375 C 4.378906 -0.285156 4.789062 -0.25 5.34375 -0.25 C 5.382812 -0.25 5.40625 -0.207031 5.40625 -0.125 C 5.40625 -0.0390625 5.382812 0 5.34375 0 C 4.894531 0 4.535156 -0.00390625 4.265625 -0.015625 L 2.75 -0.046875 L 1.65625 -0.015625 C 1.46875 -0.00390625 1.210938 0 0.890625 0 C 0.847656 0 0.828125 -0.0390625 0.828125 -0.125 C 0.828125 -0.207031 0.847656 -0.25 0.890625 -0.25 C 1.242188 -0.25 1.503906 -0.285156 1.671875 -0.359375 C 1.835938 -0.429688 1.953125 -0.5625 2.015625 -0.75 C 2.078125 -0.945312 2.109375 -1.242188 2.109375 -1.640625 L 2.109375 -5.609375 C 2.109375 -6.054688 2.050781 -6.378906 1.9375 -6.578125 C 1.832031 -6.785156 1.660156 -6.890625 1.421875 -6.890625 C 1.210938 -6.890625 0.851562 -6.785156 0.34375 -6.578125 L 0.328125 -6.578125 C 0.273438 -6.578125 0.234375 -6.609375 0.203125 -6.671875 C 0.171875 -6.734375 0.1875 -6.773438 0.25 -6.796875 L 2.671875 -7.984375 L 2.796875 -8 C 2.929688 -8 3.0625 -7.847656 3.1875 -7.546875 C 3.3125 -7.242188 3.382812 -6.847656 3.40625 -6.359375 C 3.957031 -6.992188 4.394531 -7.425781 4.71875 -7.65625 C 5.039062 -7.882812 5.351562 -8 5.65625 -8 Z M 5.65625 -8 "/></g></g></g><g fill="#f0ead6" fill-opacity="1"><g transform="translate(145.821244, 19.103465)"><g><path d="M 8.8125 -7.8125 C 8.832031 -7.8125 8.84375 -7.769531 8.84375 -7.6875 C 8.84375 -7.613281 8.832031 -7.578125 8.8125 -7.578125 C 8.457031 -7.578125 8.15625 -7.457031 7.90625 -7.21875 C 7.65625 -6.976562 7.414062 -6.582031 7.1875 -6.03125 L 4.65625 -0.015625 C 4.625 0.046875 4.550781 0.078125 4.4375 0.078125 C 4.320312 0.078125 4.25 0.046875 4.21875 -0.015625 L 1.34375 -6.140625 C 1.070312 -6.734375 0.835938 -7.117188 0.640625 -7.296875 C 0.453125 -7.484375 0.222656 -7.578125 -0.046875 -7.578125 C -0.078125 -7.578125 -0.09375 -7.613281 -0.09375 -7.6875 C -0.09375 -7.769531 -0.078125 -7.8125 -0.046875 -7.8125 C 0.210938 -7.8125 0.414062 -7.804688 0.5625 -7.796875 L 1.4375 -7.78125 L 2.8125 -7.796875 C 3.019531 -7.804688 3.296875 -7.8125 3.640625 -7.8125 C 3.679688 -7.8125 3.703125 -7.769531 3.703125 -7.6875 C 3.703125 -7.613281 3.679688 -7.578125 3.640625 -7.578125 C 2.847656 -7.578125 2.453125 -7.421875 2.453125 -7.109375 C 2.453125 -7.003906 2.476562 -6.894531 2.53125 -6.78125 L 4.9375 -1.71875 L 6.765625 -6.109375 C 6.859375 -6.367188 6.90625 -6.570312 6.90625 -6.71875 C 6.90625 -7.289062 6.382812 -7.578125 5.34375 -7.578125 C 5.320312 -7.578125 5.3125 -7.613281 5.3125 -7.6875 C 5.3125 -7.769531 5.320312 -7.8125 5.34375 -7.8125 C 5.707031 -7.8125 5.984375 -7.804688 6.171875 -7.796875 L 7.390625 -7.78125 L 8.15625 -7.796875 C 8.289062 -7.804688 8.507812 -7.8125 8.8125 -7.8125 Z M 8.8125 -7.8125 "/></g></g></g><g fill="#f0ead6" fill-opacity="1"><g transform="translate(154.631249, 19.103465)"><g><path d="M 2.78125 -10.3125 C 2.476562 -10.3125 2.242188 -10.390625 2.078125 -10.546875 C 1.910156 -10.710938 1.828125 -10.941406 1.828125 -11.234375 C 1.828125 -11.503906 1.910156 -11.71875 2.078125 -11.875 C 2.242188 -12.039062 2.476562 -12.125 2.78125 -12.125 C 3.0625 -12.125 3.28125 -12.039062 3.4375 -11.875 C 3.601562 -11.71875 3.6875 -11.503906 3.6875 -11.234375 C 3.6875 -10.941406 3.601562 -10.710938 3.4375 -10.546875 C 3.28125 -10.390625 3.0625 -10.3125 2.78125 -10.3125 Z M 1.03125 0 C 0.988281 0 0.96875 -0.0390625 0.96875 -0.125 C 0.96875 -0.207031 0.988281 -0.25 1.03125 -0.25 C 1.53125 -0.25 1.859375 -0.335938 2.015625 -0.515625 C 2.179688 -0.703125 2.265625 -1.078125 2.265625 -1.640625 L 2.265625 -5.40625 C 2.265625 -5.875 2.21875 -6.21875 2.125 -6.4375 C 2.03125 -6.65625 1.863281 -6.765625 1.625 -6.765625 C 1.394531 -6.765625 1.097656 -6.671875 0.734375 -6.484375 L 0.703125 -6.484375 C 0.648438 -6.484375 0.609375 -6.515625 0.578125 -6.578125 C 0.554688 -6.648438 0.570312 -6.695312 0.625 -6.71875 L 3.328125 -7.984375 L 3.40625 -8 C 3.445312 -8 3.488281 -7.976562 3.53125 -7.9375 C 3.582031 -7.894531 3.609375 -7.851562 3.609375 -7.8125 C 3.609375 -7.71875 3.597656 -7.445312 3.578125 -7 C 3.566406 -6.5625 3.5625 -6.035156 3.5625 -5.421875 L 3.5625 -1.640625 C 3.5625 -1.242188 3.59375 -0.945312 3.65625 -0.75 C 3.71875 -0.5625 3.832031 -0.429688 4 -0.359375 C 4.175781 -0.285156 4.441406 -0.25 4.796875 -0.25 C 4.835938 -0.25 4.859375 -0.207031 4.859375 -0.125 C 4.859375 -0.0390625 4.835938 0 4.796875 0 C 4.460938 0 4.203125 -0.00390625 4.015625 -0.015625 L 2.921875 -0.046875 L 1.78125 -0.015625 C 1.59375 -0.00390625 1.34375 0 1.03125 0 Z M 1.03125 0 "/></g></g></g><g fill="#f0ead6" fill-opacity="1"><g transform="translate(160.119794, 19.103465)"><g><path d="M 4.671875 0.25 C 3.796875 0.25 3.0625 0.0546875 2.46875 -0.328125 C 1.875 -0.710938 1.429688 -1.207031 1.140625 -1.8125 C 0.847656 -2.425781 0.703125 -3.070312 0.703125 -3.75 C 0.703125 -4.613281 0.925781 -5.363281 1.375 -6 C 1.820312 -6.644531 2.390625 -7.140625 3.078125 -7.484375 C 3.765625 -7.828125 4.472656 -8 5.203125 -8 C 5.804688 -8 6.351562 -7.875 6.84375 -7.625 C 7.34375 -7.382812 7.59375 -7.082031 7.59375 -6.71875 C 7.59375 -6.519531 7.519531 -6.351562 7.375 -6.21875 C 7.238281 -6.082031 7.054688 -6.015625 6.828125 -6.015625 C 6.390625 -6.015625 6.066406 -6.257812 5.859375 -6.75 C 5.703125 -7.039062 5.523438 -7.253906 5.328125 -7.390625 C 5.140625 -7.523438 4.863281 -7.59375 4.5 -7.59375 C 3.769531 -7.59375 3.203125 -7.296875 2.796875 -6.703125 C 2.390625 -6.117188 2.1875 -5.34375 2.1875 -4.375 C 2.1875 -3.238281 2.460938 -2.304688 3.015625 -1.578125 C 3.566406 -0.859375 4.410156 -0.5 5.546875 -0.5 C 6.316406 -0.5 6.992188 -0.71875 7.578125 -1.15625 L 7.609375 -1.15625 C 7.648438 -1.15625 7.6875 -1.132812 7.71875 -1.09375 C 7.757812 -1.050781 7.757812 -1.019531 7.71875 -1 C 7.238281 -0.5625 6.757812 -0.242188 6.28125 -0.046875 C 5.800781 0.148438 5.265625 0.25 4.671875 0.25 Z M 4.671875 0.25 "/></g></g></g><g fill="#f0ead6" fill-opacity="1"><g transform="translate(168.484241, 19.103465)"><g><path d="M 7.375 -1.171875 C 7.414062 -1.171875 7.453125 -1.144531 7.484375 -1.09375 C 7.515625 -1.050781 7.519531 -1.007812 7.5 -0.96875 C 6.59375 -0.15625 5.59375 0.25 4.5 0.25 C 3.695312 0.25 3.007812 0.0703125 2.4375 -0.28125 C 1.875 -0.644531 1.441406 -1.125 1.140625 -1.71875 C 0.847656 -2.320312 0.703125 -2.972656 0.703125 -3.671875 C 0.703125 -4.460938 0.894531 -5.1875 1.28125 -5.84375 C 1.664062 -6.507812 2.1875 -7.035156 2.84375 -7.421875 C 3.507812 -7.804688 4.242188 -8 5.046875 -8 C 5.828125 -8 6.421875 -7.796875 6.828125 -7.390625 C 7.242188 -6.992188 7.453125 -6.425781 7.453125 -5.6875 C 7.453125 -5.320312 7.367188 -5.140625 7.203125 -5.140625 L 2.203125 -5.125 C 2.179688 -4.820312 2.171875 -4.59375 2.171875 -4.4375 C 2.171875 -3.257812 2.445312 -2.3125 3 -1.59375 C 3.550781 -0.882812 4.332031 -0.53125 5.34375 -0.53125 C 5.75 -0.53125 6.085938 -0.578125 6.359375 -0.671875 C 6.640625 -0.773438 6.96875 -0.941406 7.34375 -1.171875 Z M 4.359375 -7.59375 C 3.785156 -7.59375 3.316406 -7.398438 2.953125 -7.015625 C 2.585938 -6.628906 2.351562 -6.09375 2.25 -5.40625 L 5.9375 -5.484375 C 5.9375 -6.171875 5.796875 -6.691406 5.515625 -7.046875 C 5.242188 -7.410156 4.859375 -7.59375 4.359375 -7.59375 Z M 4.359375 -7.59375 "/></g></g></g><g fill="#f0ead6" fill-opacity="1"><g transform="translate(176.767687, 19.103465)"><g><path d="M 2.109375 -6.640625 C 2.109375 -6.179688 2.253906 -5.8125 2.546875 -5.53125 C 2.847656 -5.25 3.296875 -4.953125 3.890625 -4.640625 C 4.359375 -4.390625 4.726562 -4.175781 5 -4 C 5.269531 -3.832031 5.5 -3.601562 5.6875 -3.3125 C 5.875 -3.019531 5.96875 -2.671875 5.96875 -2.265625 C 5.96875 -1.578125 5.710938 -0.988281 5.203125 -0.5 C 4.691406 -0.0195312 3.984375 0.21875 3.078125 0.21875 C 2.722656 0.21875 2.382812 0.171875 2.0625 0.078125 C 1.75 -0.015625 1.429688 -0.171875 1.109375 -0.390625 C 1.035156 -0.441406 1 -0.519531 1 -0.625 L 0.953125 -2.265625 C 0.953125 -2.304688 0.988281 -2.328125 1.0625 -2.328125 C 1.132812 -2.335938 1.175781 -2.320312 1.1875 -2.28125 C 1.4375 -1.613281 1.773438 -1.09375 2.203125 -0.71875 C 2.640625 -0.34375 3.128906 -0.15625 3.671875 -0.15625 C 4.054688 -0.15625 4.359375 -0.25 4.578125 -0.4375 C 4.796875 -0.632812 4.90625 -0.921875 4.90625 -1.296875 C 4.90625 -1.835938 4.75 -2.253906 4.4375 -2.546875 C 4.132812 -2.835938 3.679688 -3.132812 3.078125 -3.4375 C 2.617188 -3.664062 2.257812 -3.867188 2 -4.046875 C 1.75 -4.222656 1.53125 -4.453125 1.34375 -4.734375 C 1.164062 -5.015625 1.078125 -5.367188 1.078125 -5.796875 C 1.078125 -6.535156 1.347656 -7.097656 1.890625 -7.484375 C 2.441406 -7.867188 3.101562 -8.0625 3.875 -8.0625 C 4.40625 -8.0625 4.910156 -7.957031 5.390625 -7.75 C 5.503906 -7.695312 5.5625 -7.625 5.5625 -7.53125 C 5.5625 -7.25 5.554688 -7.023438 5.546875 -6.859375 L 5.53125 -6 C 5.53125 -5.96875 5.488281 -5.953125 5.40625 -5.953125 C 5.320312 -5.953125 5.28125 -5.96875 5.28125 -6 C 5.28125 -6.414062 5.050781 -6.796875 4.59375 -7.140625 C 4.144531 -7.484375 3.664062 -7.65625 3.15625 -7.65625 C 2.832031 -7.65625 2.578125 -7.570312 2.390625 -7.40625 C 2.203125 -7.25 2.109375 -6.992188 2.109375 -6.640625 Z M 2.109375 -6.640625 "/></g></g></g></g></g></svg>